<?xml version="1.0" encoding="UTF-8"?><svg id="Layer_1" xmlns="http://www.w3.org/2000/svg" xmlns:xlink="http://www.w3.org/1999/xlink" viewBox="0 0 200 206.37"><defs><style>.cls-1{fill:url(#linear-gradient);}.cls-2{fill:#025ea4;}.cls-3{fill:#00518e;}.cls-4{fill:#676867;}.cls-5{fill:#fff;}.cls-6{fill:#eb2127;}.cls-7{fill:#323333;}.cls-8{fill:#a6a7ab;}.cls-9{fill:#a5a7ab;}.cls-10{fill:#dbdddd;}.cls-11{fill:#cd2027;}</style><linearGradient id="linear-gradient" x1="35.38" y1="-.8" x2="164.69" y2="183.88" gradientUnits="userSpaceOnUse"><stop offset="0" stop-color="#a8a8a6"/><stop offset=".13" stop-color="#bebebc"/><stop offset=".44" stop-color="#ececec"/><stop offset=".59" stop-color="#fff"/><stop offset=".71" stop-color="#eee"/><stop offset=".85" stop-color="#e3e4e3"/><stop offset="1" stop-color="#e0e1e0"/></linearGradient></defs><polygon class="cls-5" points="24.17 182.08 24.06 .29 175.9 .29 176.01 182.07 100.09 206.06 24.17 182.08"/><path class="cls-9" d="m175.61.59l.11,181.24-75.63,23.93-75.63-23.93-.11-181.24h151.26m.59-.59H23.77l.11,182.37,76.21,24,76.21-24-.11-182.37h0Z"/><polygon class="cls-1" points="172.02 4.4 27.94 4.4 28.05 178.67 100.09 201.18 172.13 178.67 172.02 4.4"/><path class="cls-8" d="m45.72,182.29v-1.95c5.14-2.89,8.58-5.12,8.64-8.51v-.4c-.02-1.4-.94-2.43-3.12-2.43s-3.02.99-3.17,2.2c-.02.19-.02.57-.02.8h-2.2c0-.33.02-.84.04-1.19.27-1.99,1.82-3.8,5.54-3.8s5.24,1.89,5.33,4.01c.02.23,0,.61-.02.86-.11,3.4-3.65,6.21-7.61,8.47h8.07v1.93h-11.49Z"/><path class="cls-8" d="m69.97,170.84c.25,1.03.29,2.39.29,3.9,0,1.26-.13,3.12-.4,4.02-.69,2.54-2.49,3.71-5.47,3.71s-4.76-1.07-5.49-3.75c-.29-1.01-.38-2.71-.38-4,0-1.49.02-2.64.29-3.88.5-2.33,2.39-3.82,5.6-3.82s5.07,1.62,5.56,3.82Zm-2.22.48c-.29-1.43-1.45-2.35-3.36-2.35s-3.14.92-3.4,2.35c-.13.73-.19,2.5-.19,3.42,0,1.2.11,2.81.29,3.52.38,1.57,1.49,2.29,3.33,2.29s2.89-.78,3.29-2.29c.17-.65.27-2.5.27-3.54,0-.98-.06-2.7-.21-3.4Z"/><path class="cls-8" d="m71.75,182.29v-1.95c5.14-2.89,8.58-5.12,8.64-8.51v-.4c-.02-1.4-.94-2.43-3.12-2.43s-3.02.99-3.17,2.2c-.02.19-.02.57-.02.8h-2.2c0-.33.02-.84.04-1.19.27-1.99,1.82-3.8,5.54-3.8s5.24,1.89,5.33,4.01c.02.23,0,.61-.02.86-.11,3.4-3.65,6.21-7.61,8.47h8.07v1.93h-11.49Z"/><path class="cls-8" d="m96.61,176.56c.23.71.33,1.74.06,2.71-.52,1.99-2.5,3.19-5.79,3.19-3.08,0-4.49-.94-5.22-2.54-.38-.78-.4-1.72-.4-2.29h2.22c0,.44.02,1.22.31,1.7.48.8,1.36,1.32,3.14,1.32,1.99,0,3.04-.75,3.4-1.76.21-.67.23-1.4-.06-2.07-.42-1.09-1.34-1.41-2.98-1.41h-3v-1.85h2.85c1.59,0,2.05-.34,2.47-.96.46-.67.44-1.66.17-2.29-.33-.78-1.01-1.38-2.79-1.38-1.87,0-2.75.71-2.98,1.68-.1.36-.11.8-.11,1.13h-2.1c0-.55.04-1.34.19-1.8.5-1.78,2.12-2.92,5.12-2.92,2.81,0,4.42.94,4.88,2.6.33,1.01.27,2.16-.17,2.89-.44.84-1.15,1.49-2.01,1.7,1.15.12,2.45,1.05,2.83,2.35Z"/><path class="cls-8" d="m97.24,176.29v-2.1h8.18v2.1h-8.18Z"/><path class="cls-8" d="m107.38,182.29v-1.95c5.14-2.89,8.58-5.12,8.64-8.51v-.4c-.02-1.4-.94-2.43-3.12-2.43s-3.02.99-3.17,2.2c-.02.19-.02.57-.02.8h-2.2c0-.33.02-.84.04-1.19.27-1.99,1.82-3.8,5.54-3.8s5.24,1.89,5.33,4.01c.02.23,0,.61-.02.86-.11,3.4-3.65,6.21-7.61,8.47h8.07v1.93h-11.49Z"/><path class="cls-8" d="m131.91,170.84c.25,1.03.29,2.39.29,3.9,0,1.26-.13,3.12-.4,4.02-.69,2.54-2.49,3.71-5.47,3.71s-4.76-1.07-5.49-3.75c-.29-1.01-.38-2.71-.38-4,0-1.49.02-2.64.29-3.88.5-2.33,2.39-3.82,5.6-3.82s5.07,1.62,5.56,3.82Zm-2.22.48c-.29-1.43-1.45-2.35-3.36-2.35s-3.14.92-3.4,2.35c-.13.73-.19,2.5-.19,3.42,0,1.2.11,2.81.29,3.52.38,1.57,1.49,2.29,3.33,2.29s2.89-.78,3.29-2.29c.17-.65.27-2.5.27-3.54,0-.98-.06-2.7-.21-3.4Z"/><path class="cls-8" d="m133.02,182.29v-1.95c5.14-2.89,8.58-5.12,8.64-8.51v-.4c-.02-1.4-.94-2.43-3.12-2.43s-3.02.99-3.17,2.2c-.02.19-.02.57-.02.8h-2.2c0-.33.02-.84.04-1.19.27-1.99,1.82-3.8,5.54-3.8s5.24,1.89,5.33,4.01c.02.23,0,.61-.02.86-.11,3.4-3.65,6.21-7.61,8.47h8.07v1.93h-11.49Z"/><path class="cls-8" d="m154.52,178.81v3.48h-2.12v-3.48h-7.63v-2.12l7.55-9.64h2.2v9.83h2.31v1.93h-2.31Zm-2.12-8.95l-5.43,7.02h5.43v-7.02Z"/><path class="cls-7" d="m39.65,46.34v-30.27h-4.96v-5.05h13.44c3.7,0,6.47.22,8.32.67,1.85.45,3.48,1.57,4.89,3.38,1.41,1.81,2.12,3.93,2.12,6.37,0,1.88-.42,3.57-1.26,5.08-.84,1.51-2.08,2.65-3.7,3.42,2.24.77,3.97,2.06,5.18,3.85,1.21,1.79,1.81,3.84,1.81,6.14,0,1.99-.45,3.8-1.35,5.43-.9,1.63-2.09,2.88-3.58,3.77-1.49.89-3.12,1.49-4.89,1.8s-4.18.46-7.24.46h-13.73v-5.05h4.96Zm6.1-18.52h3.8c2.9,0,4.93-.51,6.08-1.52,1.15-1.02,1.73-2.51,1.73-4.48,0-3.83-2.6-5.75-7.81-5.75h-3.8v11.75Zm0,18.52h2.29c3,0,5.2-.15,6.59-.45,1.39-.3,2.53-1.01,3.41-2.12.88-1.11,1.32-2.54,1.32-4.28,0-1.59-.42-2.92-1.26-3.99-.84-1.07-1.93-1.79-3.25-2.15-1.33-.36-3.2-.54-5.62-.54h-3.48v13.53Z"/><path class="cls-7" d="m71.35,46.34v-30.27h-5.22v-5.05h33.55v12.16h-4.99v-7.11h-17.24v12.02h15.01v5.05h-15.01v13.21h17.24v-7.34h4.99v12.39h-33.55v-5.05h5.22Z"/><path class="cls-7" d="m103.12,51.49v-14.66h5.05v3.57c2.42,4.39,5.58,6.59,9.49,6.59,1.99,0,3.68-.61,5.05-1.83,1.37-1.22,2.06-2.82,2.06-4.79s-.56-3.29-1.68-4.14c-1.12-.84-3.24-1.68-6.36-2.51-3.62-.97-6.3-1.88-8.04-2.74-1.74-.86-3.13-2.09-4.16-3.69-1.04-1.6-1.55-3.49-1.55-5.67,0-3.39,1.13-6.09,3.38-8.11,2.25-2.02,5.08-3.03,8.49-3.03s6.23,1.04,9,3.13v-2.7h4.93v12.25h-4.93v-2.82c-2.07-3.12-4.92-4.67-8.56-4.67-2.21,0-3.9.51-5.08,1.52-1.18,1.02-1.77,2.23-1.77,3.64,0,1.08.3,2.04.9,2.86.6.82,1.36,1.43,2.29,1.81.93.39,2.76.93,5.49,1.62,3.56.93,6.14,1.79,7.75,2.59,1.61.8,2.99,2.14,4.15,4.02,1.16,1.88,1.74,4.04,1.74,6.47,0,3.45-1.21,6.29-3.64,8.54-2.43,2.25-5.43,3.37-9.01,3.37s-6.99-1.33-9.93-3.98v3.34h-5.05Z"/><path class="cls-7" d="m146.03,46.44v-30.27h-8.33v10.3h-4.99v-15.35h32.71v15.35h-4.99v-10.3h-8.3v30.27h5.25v5.05h-16.52v-5.05h5.17Z"/><polygon class="cls-3" points="0 100.13 23.65 100.13 23.65 131.97 2 131.97 6.59 118.89 0 100.13"/><polygon class="cls-10" points="23.65 133.28 1.54 133.28 2 131.97 23.65 131.97 23.65 133.28"/><polygon class="cls-11" points="23.65 137.65 0 137.65 1.54 133.28 23.65 133.28 23.65 137.65"/><polygon class="cls-3" points="200 100.13 176.35 100.13 176.35 131.97 198 131.97 193.41 118.89 200 100.13"/><polygon class="cls-10" points="176.35 133.28 198.46 133.28 198 131.97 176.35 131.97 176.35 133.28"/><polygon class="cls-11" points="176.35 137.65 200 137.65 198.46 133.28 176.35 133.28 176.35 137.65"/><polygon class="cls-7" points="23.79 129.41 23.79 137.77 14.01 129.37 23.79 129.41"/><polygon class="cls-7" points="176.29 129.41 176.29 137.77 185.31 129.37 176.29 129.41"/><rect class="cls-2" x="14.04" y="91.74" width="171.21" height="33.35"/><g id="U.S.News"><path class="cls-5" d="m38.6,124.55c-6.06,0-10.58-2.28-10.58-7.97v-16.64h5.32v16.18c0,2.56,1.91,4.06,5.38,4.06,3.05,0,5.2-1.5,5.2-4.03v-16.21h5.32v16.94c0,5.14-4.43,7.66-10.64,7.66Z"/><path class="cls-5" d="m47.91,124.24v-4.95h4.74v4.95h-4.74Z"/><path class="cls-5" d="m64.21,124.57c-7.35,0-10-2.22-10.98-5.29-.25-.8-.34-2-.34-2.49h5.47c0,.43.16,1.17.34,1.54.68,1.42,2.28,2.03,5.5,2.03,3.69,0,4.98-1.01,4.98-2.61,0-2-1.02-2.71-4.95-3.44-.71-.13-2.49-.47-3.57-.68-4.74-.89-7.66-3.07-7.66-7.1s3.32-6.89,10.46-6.89c6.09,0,8.95,2.12,10.18,5.2.31.8.56,1.72.56,2.34h-5.48c0-.28-.15-.83-.34-1.2-.65-1.35-1.97-2.06-5.04-2.06-4.03,0-4.83.89-4.83,2.28,0,1.78,1.45,2.49,5.42,3.29,1.23.24,2.83.59,3.38.68,4.83.92,7.35,2.92,7.35,7.08,0,4.4-3.48,7.35-10.46,7.35Z"/><path class="cls-5" d="m73.45,124.24v-4.95h4.74v4.95h-4.74Z"/><path class="cls-5" d="m94.68,124.24l-9.78-16.46v16.46h-5.07v-24.3h6.18l9.35,15.65v-15.65h5.07v24.3h-5.75Z"/><path class="cls-5" d="m118.83,122.9c-1.57,1.01-3.75,1.63-6.65,1.63-3.98,0-7.2-1.17-8.93-3.91-.88-1.4-1.37-3.19-1.37-5.44,0-2.05.56-3.88,1.56-5.31,1.73-2.51,4.82-3.98,8.74-3.98,4.1,0,6.91,1.5,8.51,3.81,1.34,1.96,1.82,4.53,1.53,7.23h-15.19c0,.82.36,1.44.98,2.12.75.82,2.22,1.34,4.17,1.34,1.47,0,2.54-.26,3.29-.59.94-.42,1.4-1.01,1.49-1.4h5.12c-.42,1.73-1.46,3.35-3.26,4.5Zm-2.67-11.44c-.75-.75-1.99-1.37-3.95-1.37-1.85,0-3.22.49-4.1,1.27-.62.55-1.11,1.63-1.11,2.15h10.03c0-.52-.22-1.37-.87-2.05Z"/><path class="cls-5" d="m147.73,124.24h-6.16s-3.52-10.3-3.59-10.89c-.04-.23-.23-1.29-.23-1.29,0,0-.19,1.06-.23,1.26-.03.62-3.55,10.92-3.55,10.92h-6.2l-6.41-17.92h5.44l4.3,13.33,3.94-13.33h5.8l4.04,13.33,4.2-13.33h5.12l-6.49,17.92Z"/><path class="cls-5" d="m163.78,124.56c-6.06,0-8.93-1.21-9.68-4.14-.16-.71-.19-1.2-.19-1.79h5.18c0,.23.03.55.16.91.33.85,1.69,1.08,4.53,1.08s3.88-.52,3.88-1.56-1.08-1.24-3.72-1.63c-.68-.1-2.83-.42-3.91-.59-3.94-.55-5.83-2.28-5.83-5.7,0-3.19,2.87-5.28,8.64-5.28,4.92,0,8.02,1.27,8.93,3.84.23.69.33,1.79.33,2.15h-5.05c0-.19-.07-.75-.23-.98-.36-.49-1.3-.91-3.78-.91-2.87,0-3.72.46-3.72,1.31,0,.78.56,1.07,3.1,1.47,1.04.16,3.55.52,4.17.62,4.3.65,6.19,2.25,6.19,5.61,0,3.71-2.8,5.6-8.99,5.6Z"/></g><g id="_World_Report"><path class="cls-5" d="m106.25,103.24c.16-.21.25-.46.27-.74h1.37c-.02.61-.27,1.14-.66,1.52.32.24.69.52,1.05.8h-1.86c-.08-.06-.16-.12-.23-.19-.38.16-.88.23-1.34.23-1.16,0-2.21-.21-2.25-1.11,0-.07,0-.19,0-.25.01-.56.54-.9,1.12-1.17-.28-.4-.39-.74-.4-1.03v-.25c.03-.6.62-1.17,1.64-1.17.93,0,1.47.54,1.5,1.13,0,.05,0,.18,0,.21-.01.62-.49,1.05-.98,1.35.22.18.5.43.78.66Zm-2.21.31c0,.24.22.32.73.32.14,0,.31-.02.43-.05-.28-.24-.57-.47-.78-.67-.22.12-.38.26-.38.4Zm1.2-2.22v-.1c0-.16-.08-.3-.31-.3s-.31.15-.33.32c0,.04,0,.09,0,.13,0,.13.08.29.2.45.25-.15.42-.31.44-.5Z"/><path class="cls-5" d="m115.62,104.81h-1.63s-.73-2.81-.75-2.97c0,.16-.76,2.97-.76,2.97h-1.62l-1.4-4.88h1.6s.74,3.02.74,3.17c0-.15.72-3.17.72-3.17h1.54s.74,3.02.74,3.17c0-.15.73-3.17.73-3.17h1.45l-1.37,4.88Z"/><path class="cls-5" d="m122.26,102.33c0,1.72-.82,2.56-2.6,2.56s-2.61-.87-2.61-2.54c0-1.56.8-2.5,2.61-2.5s2.6.85,2.6,2.48Zm-1.51.04c0-.97-.27-1.37-1.09-1.37s-1.08.38-1.08,1.37c0,1.03.37,1.38,1.09,1.38s1.08-.29,1.08-1.38Z"/><path class="cls-5" d="m127.39,102.39c-.15.26-.38.41-.6.46l1.14,1.95h-1.68l-.86-1.65h-1.01v1.65h-1.47v-4.88h3.09c.65,0,1.07.19,1.32.51.19.24.28.57.28,1.03,0,.39-.08.7-.21.92Zm-1.3-1.11c-.07-.16-.22-.2-.43-.2h-1.26v1h1.29c.18,0,.34-.04.4-.16.04-.09.06-.22.06-.31,0-.11-.01-.24-.05-.32Z"/><path class="cls-5" d="m128.64,104.81v-4.88h1.51v3.68h2.34v1.21h-3.86Z"/><path class="cls-5" d="m136,104.81h-2.75v-4.88h2.68c.88,0,1.43.22,1.73.64.3.41.36.82.36,1.71,0,1.04-.07,1.42-.34,1.83-.29.45-.8.71-1.68.71Zm.57-2.53c0-.35-.04-.8-.15-.94-.19-.21-.37-.26-.74-.26h-.94v2.59h.94c.38,0,.58-.08.75-.28.13-.16.14-.71.14-1.11Z"/><path class="cls-5" d="m144.98,102.39c-.15.26-.38.41-.6.46l1.14,1.95h-1.68l-.86-1.65h-1.01v1.65h-1.47v-4.88h3.09c.65,0,1.07.19,1.32.51.19.24.28.57.28,1.03,0,.39-.09.7-.22.92Zm-1.29-1.11c-.08-.16-.22-.2-.44-.2h-1.26v1h1.29c.18,0,.35-.04.4-.16.04-.09.06-.22.06-.31,0-.11-.01-.24-.05-.32Z"/><path class="cls-5" d="m146.29,104.81v-4.88h4.15v1.15h-2.68v.71h2.58v1.16h-2.58v.73h2.71v1.14h-4.18Z"/><path class="cls-5" d="m155.78,102.8c-.28.33-.75.48-1.35.5-.18,0-1.51,0-1.51,0v1.53h-1.5v-4.88h3c.59,0,1.01.13,1.27.41.29.25.44.67.44,1.27,0,.54-.12.93-.36,1.19Zm-1.21-1.5c-.08-.16-.22-.23-.47-.23h-1.19v1.12h1.17c.29,0,.43-.09.5-.23.05-.09.06-.18.06-.32,0-.15-.02-.28-.07-.34Z"/><path class="cls-5" d="m161.87,102.33c0,1.72-.82,2.56-2.6,2.56s-2.61-.87-2.61-2.54c0-1.56.8-2.5,2.61-2.5s2.6.85,2.6,2.48Zm-1.51.04c0-.97-.26-1.37-1.09-1.37s-1.08.38-1.08,1.37c0,1.03.37,1.38,1.08,1.38s1.09-.29,1.09-1.38Z"/><path class="cls-5" d="m167.03,102.39c-.16.26-.38.41-.6.46l1.14,1.95h-1.67l-.86-1.65h-1.01v1.65h-1.47v-4.88h3.09c.65,0,1.08.19,1.32.51.19.24.28.57.28,1.03,0,.39-.09.7-.21.92Zm-1.3-1.11c-.07-.16-.22-.2-.44-.2h-1.26v1h1.29c.19,0,.35-.04.4-.16.04-.09.05-.22.05-.31,0-.11-.01-.24-.05-.32Z"/><path class="cls-5" d="m170.76,101.11v3.71h-1.52v-3.71h-1.55v-1.18h4.63v1.18h-1.56Z"/></g><rect class="cls-5" x="14.05" y="123.73" width="171.19" height="1.57"/><rect class="cls-6" x="14.01" y="125.04" width="171.31" height="4.54"/><path class="cls-7" d="m41.36,65.7c0,2.23-.14,3.62-.44,4.6-.24.68-.74,1.55-1.18,1.72l2.2,13.42h-2.2l-1.93-12.78-1.05.03v12.74h-2.03v-27.04h3.21c1.86,0,2.74,1.01,3.14,2.8.17.78.27,2.37.27,4.5Zm-2.2.34c0-1.39-.1-3.51-.14-3.85-.07-1.01-.51-1.76-1.25-1.76h-.98v10.27s.78,0,1.08-.07c.57-.07.81-.51.95-.95.24-.64.34-2.6.34-3.65Z"/><path class="cls-7" d="m49.17,85.43h-6.08v-27.04h6.05v2.03h-3.95v10.34h3.48v2.03h-3.48v10.61h3.99v2.03Z"/><path class="cls-7" d="m56.91,85.43h-1.42l-.1-.95c-.34.74-1.25,1.12-2.1,1.12-1.86,0-3.08-1.05-3.18-3.51-.03-.74-.1-7.67-.1-10.17s0-7.54.07-9.7c.1-2.26,1.15-3.99,3.41-3.99,2.4,0,3.21,1.76,3.28,3.38.07,1.29,0,5.2,0,5.2h-2.06v-4.56c0-1.39-.44-1.83-1.22-1.83s-1.28.54-1.28,1.99c0,1.62-.03,7.74-.03,9.53,0,1.35.03,8.48.03,9.63,0,1.32.41,1.99,1.32,1.99.85,0,1.32-.61,1.32-1.86v-8.59h-1.76v-2.03h3.79v8.28c0,3.08.03,6.05.03,6.05Z"/><path class="cls-7" d="m60.59,85.43h-2.13v-27.04h2.13v27.04Z"/><path class="cls-7" d="m65.9,58.26c2.37,0,3.58,1.39,3.65,4.53.03,1.22.03,6.35.03,9.02,0,2.97,0,7.57-.03,9.33-.1,2.97-1.18,4.5-3.65,4.5s-3.52-1.42-3.58-4.43c-.03-.74-.03-6.46-.03-9.36,0-2.5,0-8.04.03-8.96.07-3.11,1.12-4.63,3.58-4.63Zm.07,25.28c1.01,0,1.32-.91,1.39-1.99.07-1.18.07-7.6.07-9.67,0-1.83,0-8.18-.03-9.26-.03-1.55-.37-2.23-1.45-2.23-1.22,0-1.45.88-1.45,2.26,0,1.12-.03,7.37-.03,9.33,0,2.06,0,8.42.03,9.57.03,1.15.34,1.99,1.49,1.99Z"/><path class="cls-7" d="m78.13,85.43h-2.37l-2.64-17.54v17.54h-1.89v-27.04h2.26l2.7,19.13v-19.13h1.93v27.04Z"/><path class="cls-7" d="m81.68,78.84c0,.74-.51,6.59-.51,6.59h-2.06l2.81-27.04h2.81l2.2,27.04h-2.1s-.37-5.85-.41-6.59h-2.74Zm2.6-2.03s-.91-10.07-.91-10.75-.17-5.17-.17-5.17c0,0-.2,4.46-.24,5.14-.07.95-1.08,10.78-1.08,10.78h2.4Z"/><path class="cls-7" d="m94.09,85.43h-6.15v-27.04h2.13v25.01h4.02v2.03Z"/><path class="cls-7" d="m105.95,85.43h-2.1v-12.64h-2.74v12.64h-2.1v-27.04h2.1v12.37h2.74v-12.37h2.1v27.04Z"/><path class="cls-7" d="m111.29,58.26c2.37,0,3.58,1.39,3.65,4.53.03,1.22.03,6.35.03,9.02,0,2.97,0,7.57-.03,9.33-.1,2.97-1.18,4.5-3.65,4.5s-3.52-1.42-3.58-4.43c-.03-.74-.03-6.46-.03-9.36,0-2.5,0-8.04.03-8.96.07-3.11,1.12-4.63,3.58-4.63Zm.07,25.28c1.01,0,1.32-.91,1.39-1.99.07-1.18.07-7.6.07-9.67,0-1.83,0-8.18-.03-9.26-.03-1.55-.37-2.23-1.45-2.23-1.22,0-1.45.88-1.45,2.26,0,1.12-.03,7.37-.03,9.33,0,2.06,0,8.42.03,9.57.03,1.15.34,1.99,1.49,1.99Z"/><path class="cls-7" d="m123.12,80.5c0,3.79-1.28,5.14-3.52,5.14s-3.41-1.25-3.41-3.45v-3.82h1.96v3.41c0,1.42.54,1.93,1.35,1.93.91,0,1.42-.61,1.42-2.84,0-3.04-.37-4.93-1.55-7.57-.3-.64-.91-1.93-1.28-2.67-1.39-2.74-2.03-4.66-2.03-7.67s1.32-4.7,3.58-4.7c2.43,0,3.31,1.83,3.35,4.5,0,.17.03,3.04.03,3.04h-2.06v-2.97c0-1.59-.27-2.5-1.35-2.5-1.01,0-1.35.78-1.35,2.84,0,2.16.57,4.16,1.72,6.32.41.78.88,1.69,1.28,2.54,1.32,2.74,1.86,5.21,1.86,8.48Z"/><path class="cls-7" d="m131.27,66.3c0,3.35-.24,5.24-.95,6.32-.57.88-1.35,1.35-2.5,1.49-.57.07-1.25.03-1.25.03v11.29h-2.1v-27.04h3.41c1.18,0,1.89.54,2.5,1.52.51.84.88,3.04.88,6.39Zm-2.16.07c0-2.6-.24-4.26-.47-4.8-.37-.88-.88-1.08-1.32-1.08h-.74v11.63h.64c.95-.03,1.22-.54,1.49-1.18.27-.64.41-1.96.41-4.56Z"/><path class="cls-7" d="m134.85,85.43h-2.13v-27.04h2.13v27.04Z"/><path class="cls-7" d="m142.86,60.42h-2.43v25.01h-2.13v-25.01h-2.4v-2.03h6.96v2.03Z"/><path class="cls-7" d="m145.06,78.84c0,.74-.51,6.59-.51,6.59h-2.06l2.81-27.04h2.81l2.2,27.04h-2.1s-.37-5.85-.41-6.59h-2.74Zm2.6-2.03s-.91-10.07-.91-10.75-.17-5.17-.17-5.17c0,0-.2,4.46-.24,5.14-.07.95-1.08,10.78-1.08,10.78h2.4Z"/><path class="cls-7" d="m158.04,85.43h-6.15v-27.04h2.13v25.01h4.02v2.03Z"/><path class="cls-7" d="m165.81,80.5c0,3.79-1.28,5.14-3.52,5.14s-3.41-1.25-3.41-3.45v-3.82h1.96v3.41c0,1.42.54,1.93,1.35,1.93.91,0,1.42-.61,1.42-2.84,0-3.04-.37-4.93-1.55-7.57-.3-.64-.91-1.93-1.28-2.67-1.39-2.74-2.03-4.66-2.03-7.67s1.32-4.7,3.58-4.7c2.43,0,3.31,1.83,3.35,4.5,0,.17.03,3.04.03,3.04h-2.06v-2.97c0-1.59-.27-2.5-1.35-2.5-1.01,0-1.35.78-1.35,2.84,0,2.16.57,4.16,1.72,6.32.41.78.88,1.69,1.28,2.54,1.32,2.74,1.86,5.21,1.86,8.48Z"/><path class="cls-7" d="m43.77,146.42v-7.6l-1.96,7.6h-1.17l-1.88-7.59v7.59h-1.12v-10.74h1.47l2.13,8.89,2.2-8.89h1.44v10.74h-1.12Z"/><path class="cls-7" d="m46.4,146.42v-10.74h1.23v10.74h-1.23Z"/><path class="cls-7" d="m49.62,146.42h-1.22l2.61-10.74h1.53l2.39,10.74h-1.24l-.57-2.63h-2.92l-.58,2.63Zm2.27-8.36c-.03-.14-.15-1.05-.15-1.05,0,0-.15.92-.18,1.05-.04.19-1.11,4.65-1.11,4.65h2.44s-.99-4.5-1.01-4.65Z"/><path class="cls-7" d="m61.84,146.42v-7.6l-1.96,7.6h-1.17l-1.88-7.59v7.59h-1.12v-10.74h1.47l2.13,8.89,2.2-8.89h1.44v10.74h-1.12Z"/><path class="cls-7" d="m64.47,146.42v-10.74h1.23v10.74h-1.23Z"/><path class="cls-7" d="m66.61,141.79v-1.17h4.06v1.17h-4.06Z"/><path class="cls-7" d="m72.8,136.82v3.62h3.47v1.13h-3.47v4.85h-1.2v-10.74h4.88v1.13h-3.67Z"/><path class="cls-7" d="m82.87,137.1c.36.84.49,2.15.49,3.9,0,1.93-.15,3.13-.53,3.97-.47,1.05-1.24,1.55-2.59,1.55s-2.2-.55-2.61-1.54c-.31-.76-.51-1.88-.51-3.96,0-1.77.15-3,.51-3.92.35-.88,1.22-1.53,2.61-1.53s2.21.55,2.63,1.51Zm-1.15,7.51c.27-.62.42-1.78.42-3.56,0-1.09-.09-2.75-.36-3.39-.22-.51-.73-.93-1.54-.93s-1.28.4-1.5.92c-.27.65-.38,2.31-.38,3.43,0,1.23.07,2.74.38,3.5.28.69.95.9,1.5.9.7,0,1.24-.31,1.49-.86Z"/><path class="cls-7" d="m89.63,140.51c-.2.43-.54.77-.9.86l1.65,5.05h-1.22l-1.59-4.81h-1.86v4.81h-1.17v-10.74h3.23c1.05,0,1.61.46,1.89,1.19.16.38.26.97.26,1.8s-.11,1.46-.27,1.84Zm-1.07-3c-.12-.43-.45-.72-1.01-.72h-1.84v3.75s1.9-.01,1.97-.01c.45-.03.72-.2.82-.49.09-.24.15-.85.15-1.24,0-.47-.04-1.13-.09-1.3Z"/><path class="cls-7" d="m94.07,136.81v9.61h-1.23v-9.61h-2.24v-1.12h5.73v1.12h-2.25Z"/><path class="cls-7" d="m99.74,146.42v-10.74h1.22v9.6h3.54v1.13h-4.75Z"/><path class="cls-7" d="m105.89,146.42h-1.22l2.61-10.74h1.53l2.39,10.74h-1.24l-.57-2.63h-2.92l-.58,2.63Zm2.27-8.36c-.03-.14-.15-1.05-.15-1.05,0,0-.15.92-.18,1.05-.04.19-1.11,4.65-1.11,4.65h2.44s-.99-4.5-1.01-4.65Z"/><path class="cls-7" d="m114.67,146.53c-1.66,0-2.81-.74-2.81-2.49v-8.36h1.2v8.25c0,1.04.62,1.5,1.62,1.5.95,0,1.55-.49,1.55-1.49v-8.26h1.2v8.41c0,1.61-1.08,2.43-2.77,2.43Z"/><path class="cls-7" d="m121.82,146.42h-2.92v-10.74h2.84c1.19,0,2.04.46,2.4,1.19.41.8.46,1.61.46,3.98,0,2.74-.07,3.66-.51,4.42-.39.67-1.07,1.15-2.27,1.15Zm1.57-5.56c0-1.84.03-2.57-.31-3.28-.24-.53-.82-.76-1.49-.76h-1.5v8.49h1.57c.63,0,1.16-.22,1.42-.66.27-.49.31-1.4.31-3.8Z"/><path class="cls-7" d="m125.74,146.42v-10.74h4.9v1.13h-3.71v3.63h3.5v1.12h-3.5v3.71h3.74v1.13h-4.93Z"/><path class="cls-7" d="m136.9,140.51c-.2.43-.54.77-.9.86l1.65,5.05h-1.22l-1.59-4.81h-1.86v4.81h-1.17v-10.74h3.23c1.05,0,1.61.46,1.89,1.19.16.38.26.97.26,1.8s-.11,1.46-.27,1.84Zm-1.07-3c-.12-.43-.45-.72-1.01-.72h-1.84v3.75s1.9-.01,1.97-.01c.45-.03.72-.2.82-.49.09-.24.15-.85.15-1.24,0-.47-.04-1.13-.09-1.3Z"/><path class="cls-7" d="m141.51,146.42h-2.92v-10.74h2.84c1.19,0,2.04.46,2.4,1.19.41.8.46,1.61.46,3.98,0,2.74-.07,3.66-.51,4.42-.39.67-1.07,1.15-2.27,1.15Zm1.57-5.56c0-1.84.03-2.57-.31-3.28-.24-.53-.82-.76-1.49-.76h-1.5v8.49h1.57c.63,0,1.16-.22,1.42-.66.27-.49.31-1.4.31-3.8Z"/><path class="cls-7" d="m145.9,146.42h-1.22l2.61-10.74h1.53l2.39,10.74h-1.24l-.57-2.63h-2.92l-.58,2.63Zm2.27-8.36c-.03-.14-.15-1.05-.15-1.05,0,0-.15.92-.18,1.05-.04.19-1.11,4.65-1.11,4.65h2.44s-.99-4.5-1.01-4.65Z"/><path class="cls-7" d="m151.99,146.42v-10.74h1.22v9.6h3.54v1.13h-4.75Z"/><path class="cls-7" d="m157.67,146.42v-10.74h4.9v1.13h-3.71v3.63h3.5v1.12h-3.5v3.71h3.74v1.13h-4.93Z"/><path class="cls-4" d="m39.5,156.35c-.16.34-.42.6-.71.68l1.29,3.96h-.95l-1.25-3.76h-1.46v3.76h-.92v-8.41h2.53c.82,0,1.26.36,1.48.93.13.3.2.76.2,1.41s-.09,1.14-.21,1.44Zm-.84-2.35c-.1-.34-.35-.56-.79-.56h-1.44v2.94s1.49-.01,1.54-.01c.35-.02.56-.16.65-.38.07-.19.12-.67.12-.97,0-.37-.03-.89-.07-1.02Z"/><path class="cls-4" d="m40.83,160.98v-8.41h3.84v.89h-2.91v2.84h2.74v.88h-2.74v2.91h2.93v.89h-3.86Z"/><path class="cls-4" d="m49.87,159.71c-.32.91-1.06,1.35-2.09,1.35-.95,0-1.54-.29-1.97-1.03-.4-.7-.52-2.09-.52-3.31,0-1.48.12-2.42.42-3.09.35-.75,1.05-1.14,2.07-1.14s1.79.46,2.05,1.22c.2.56.26,1.11.26,1.75h-.95c0-.42-.08-1.13-.24-1.47-.19-.4-.57-.6-1.13-.6-.59,0-.97.18-1.18.63-.26.58-.32,1.65-.32,2.71s.14,2.42.34,2.82c.25.51.72.66,1.18.66.53,0,.96-.19,1.16-.71.18-.47.21-.98.21-1.39h.94c0,.56-.06,1.08-.24,1.59Z"/><path class="cls-4" d="m55.18,153.68c.29.66.38,1.68.38,3.06,0,1.51-.12,2.45-.41,3.11-.37.83-.97,1.22-2.03,1.22s-1.72-.43-2.04-1.2c-.24-.59-.4-1.47-.4-3.1,0-1.38.12-2.35.4-3.07.27-.69.95-1.19,2.04-1.19s1.73.43,2.06,1.18Zm-.9,5.88c.21-.49.33-1.4.33-2.79,0-.86-.07-2.16-.29-2.65-.17-.4-.57-.73-1.21-.73s-1,.32-1.17.72c-.21.51-.3,1.81-.3,2.69,0,.96.05,2.15.3,2.74.22.54.74.71,1.17.71.55,0,.97-.24,1.16-.68Z"/><path class="cls-4" d="m60.11,160.98l-.05-.66c-.21.36-.69.74-1.56.74-1.62,0-2.29-1.01-2.29-4.28,0-2.83.42-4.29,2.4-4.29,1.75,0,2.19,1.32,2.19,2.81h-.92c0-1.06-.22-1.91-1.27-1.91-1.18,0-1.43.77-1.43,3.42s.18,3.45,1.45,3.45c.75,0,1.19-.46,1.32-1.02v-1.95h-1.62v-.86h2.5v2.48c0,.99.01,2.05.01,2.06h-.72Z"/><path class="cls-4" d="m65,160.98l-2.36-6.43v6.43h-.88v-8.41h1.09l2.32,6.37v-6.37h.89v8.41h-1.06Z"/><path class="cls-4" d="m67.23,160.98v-8.41h.96v8.41h-.96Z"/><path class="cls-4" d="m68.98,160.98v-.83l3.13-6.69h-2.97v-.89h4.03v.75l-3.16,6.77h3.26v.89h-4.28Z"/><path class="cls-4" d="m73.98,160.98v-8.41h3.84v.89h-2.91v2.84h2.74v.88h-2.74v2.91h2.93v.89h-3.86Z"/><path class="cls-4" d="m81,160.98h-2.28v-8.41h2.22c.93,0,1.6.36,1.88.93.32.62.36,1.26.36,3.12,0,2.15-.05,2.87-.4,3.46-.31.53-.84.9-1.78.9Zm1.23-4.36c0-1.44.02-2.01-.24-2.57-.19-.41-.64-.59-1.16-.59h-1.17v6.65h1.23c.5,0,.91-.17,1.11-.52.21-.38.24-1.1.24-2.97Z"/><path class="cls-4" d="m86.12,160.98v-8.41h.96v8.41h-.96Z"/><path class="cls-4" d="m91.51,160.98l-2.36-6.43v6.43h-.88v-8.41h1.09l2.32,6.37v-6.37h.89v8.41h-1.06Z"/><path class="cls-4" d="m96.91,160.98v-7.17l-1.45.23v-.77c1.16-.18,1.53-.39,1.7-.72h.68v8.43h-.93Z"/><path class="cls-4" d="m100.92,161.06c-1.27,0-1.99-.56-2.05-1.58-.02-.32-.02-.49-.02-.89h.91c0,.13,0,.48.02.74.05.68.49.88,1.1.88.7,0,1.09-.27,1.14-.93.06-.83.04-1.75,0-2.14-.06-.6-.45-.88-1.07-.88-.56,0-.93.23-1.07.77h-.9v-4.46h3.73v.88h-2.89v2.61c.2-.42.74-.67,1.36-.67,1.05,0,1.66.54,1.79,1.49.05.57.07,1.91,0,2.58-.11.98-.86,1.59-2.06,1.59Z"/><path class="cls-4" d="m108.06,153.45v7.53h-.96v-7.53h-1.76v-.88h4.48v.88h-1.77Z"/><path class="cls-4" d="m113.43,158v2.98h-.96v-2.96l-2.09-5.45h.98s1.6,4.16,1.61,4.38c0-.22,1.7-4.38,1.7-4.38h.95l-2.19,5.42Z"/><path class="cls-4" d="m120.15,157.02c-.29.41-.75.66-1.43.69-.18.01-1.54,0-1.54,0v3.28h-.94v-8.41h2.53c.73,0,1.1.24,1.38.68.23.36.38.94.38,1.9s-.12,1.49-.37,1.86Zm-.76-3.11c-.19-.33-.41-.44-.82-.44h-1.39v3.37h1.33c.53,0,.75-.2.89-.45.11-.19.16-.57.16-1.21s-.07-1.1-.17-1.27Z"/><path class="cls-4" d="m121.39,160.98v-8.41h3.84v.89h-2.91v2.84h2.74v.88h-2.74v2.91h2.93v.89h-3.86Z"/><path class="cls-4" d="m128.12,161.07c-1.37,0-2.07-.51-2.23-1.41-.07-.41-.06-.76-.06-1.03h.93c0,.18.03.6.06.83.08.56.59.77,1.33.77.81,0,1.23-.37,1.23-1.21,0-.78-.3-1.23-1.18-1.79-.18-.12-.56-.36-.82-.53-.94-.6-1.53-1.18-1.53-2.33s.72-1.89,2.19-1.88c1.35,0,1.99.57,2.19,1.55.06.31.05.59.05.86h-.95c0-.14.01-.48-.03-.69-.12-.6-.47-.88-1.29-.88s-1.17.39-1.17,1.04c0,.7.3,1.08,1.21,1.65.25.16.6.37.79.49.97.6,1.53,1.24,1.53,2.43,0,1.36-.77,2.1-2.23,2.1Z"/><path class="cls-4" d="m137.51,153.68c.29.66.38,1.68.38,3.06,0,1.51-.12,2.45-.41,3.11-.37.83-.97,1.22-2.03,1.22s-1.72-.43-2.04-1.2c-.24-.59-.4-1.47-.4-3.1,0-1.38.12-2.35.4-3.07.27-.69.95-1.19,2.04-1.19s1.73.43,2.06,1.18Zm-.9,5.88c.21-.49.33-1.4.33-2.79,0-.86-.07-2.16-.29-2.65-.17-.4-.57-.73-1.21-.73s-1,.32-1.17.72c-.21.51-.3,1.81-.3,2.69,0,.96.05,2.15.3,2.74.22.54.74.71,1.17.71.55,0,.97-.24,1.16-.68Z"/><path class="cls-4" d="m139.75,153.46v2.83h2.72v.89h-2.72v3.8h-.94v-8.41h3.82v.89h-2.88Z"/><path class="cls-4" d="m149.76,159.71c-.32.91-1.06,1.35-2.09,1.35-.95,0-1.54-.29-1.97-1.03-.4-.7-.52-2.09-.52-3.31,0-1.48.12-2.42.42-3.09.35-.75,1.05-1.14,2.07-1.14s1.79.46,2.05,1.22c.2.56.26,1.11.26,1.75h-.95c0-.42-.08-1.13-.24-1.47-.19-.4-.57-.6-1.13-.6-.59,0-.97.18-1.18.63-.26.58-.32,1.65-.32,2.71s.14,2.42.34,2.82c.25.51.72.66,1.18.66.53,0,.96-.19,1.16-.71.18-.47.21-.98.21-1.39h.94c0,.56-.06,1.08-.24,1.59Z"/><path class="cls-4" d="m151.2,160.98h-.95l2.04-8.41h1.19l1.87,8.41h-.97l-.44-2.06h-2.28l-.45,2.06Zm1.78-6.55c-.02-.11-.12-.82-.12-.82,0,0-.12.72-.14.82-.03.15-.87,3.64-.87,3.64h1.91s-.77-3.52-.79-3.64Z"/><path class="cls-4" d="m159.96,156.35c-.16.34-.42.6-.71.68l1.29,3.96h-.95l-1.25-3.76h-1.46v3.76h-.92v-8.41h2.53c.82,0,1.26.36,1.48.93.13.3.2.76.2,1.41s-.08,1.14-.21,1.44Zm-.83-2.35c-.1-.34-.35-.56-.79-.56h-1.44v2.94s1.49-.01,1.54-.01c.35-.02.56-.16.64-.38.07-.19.12-.67.12-.97,0-.37-.03-.89-.07-1.02Z"/><path class="cls-4" d="m161.29,160.98v-8.41h3.84v.89h-2.91v2.84h2.74v.88h-2.74v2.91h2.93v.89h-3.86Z"/></svg>