<?xml version="1.0" encoding="UTF-8"?><svg id="Layer_1" xmlns="http://www.w3.org/2000/svg" xmlns:xlink="http://www.w3.org/1999/xlink" viewBox="0 0 200 213.28"><defs><style>.cls-1{fill:url(#linear-gradient);}.cls-2{fill:#00528d;}.cls-3{fill:#005fa2;}.cls-4{fill:#fff;}.cls-5{fill:#e7262b;}.cls-6{fill:#a0a2a7;}.cls-7{fill:#323333;}.cls-8{fill:#dadbda;}.cls-9{fill:#cd2029;}</style><linearGradient id="linear-gradient" x1="33.8" y1=".37" x2="166.32" y2="189.63" gradientUnits="userSpaceOnUse"><stop offset=".13" stop-color="#d3b268"/><stop offset=".39" stop-color="#ffe9b6"/><stop offset=".48" stop-color="#f9e1ad"/><stop offset=".61" stop-color="#e8ce94"/><stop offset=".78" stop-color="#ceaf6d"/><stop offset=".98" stop-color="#a98536"/><stop offset="1" stop-color="#a68131"/></linearGradient></defs><polygon class="cls-4" points="24.16 .29 24.16 25.8 24.16 154.64 24.16 189 100.06 212.97 175.96 188.99 175.96 154.64 175.96 25.8 175.96 .29 24.16 .29"/><polygon class="cls-1" points="28.03 4.4 28.03 37.13 28.03 121.01 28.03 185.59 100.06 208.09 172.09 185.59 172.09 121.01 172.09 37.13 172.09 4.4 28.03 4.4"/><path class="cls-7" d="m39.54,46.33v-30.3h-4.97v-5.06h13.45c3.7,0,6.47.22,8.32.67,1.85.45,3.48,1.57,4.9,3.38,1.41,1.81,2.12,3.94,2.12,6.38,0,1.88-.42,3.57-1.26,5.08-.84,1.51-2.08,2.65-3.71,3.43,2.25.77,3.98,2.06,5.19,3.85,1.21,1.79,1.82,3.84,1.82,6.14,0,2-.45,3.81-1.35,5.43-.9,1.63-2.1,2.89-3.59,3.78s-3.12,1.49-4.9,1.8c-1.77.31-4.19.46-7.25.46h-13.74v-5.06h4.97Zm6.1-18.54h3.81c2.91,0,4.93-.51,6.09-1.53,1.15-1.02,1.73-2.51,1.73-4.49,0-3.84-2.61-5.75-7.82-5.75h-3.81v11.77Zm0,18.54h2.3c3,0,5.2-.15,6.6-.45,1.39-.3,2.53-1.01,3.41-2.12.88-1.11,1.32-2.54,1.32-4.29,0-1.59-.42-2.92-1.26-4-.84-1.07-1.93-1.79-3.25-2.15-1.33-.36-3.2-.54-5.62-.54h-3.49v13.54Z"/><path class="cls-7" d="m71.28,46.33v-30.3h-5.23v-5.06h33.59v12.17h-5v-7.12h-17.26v12.03h15.02v5.06h-15.02v13.22h17.26v-7.35h5v12.41h-33.59v-5.06h5.23Z"/><path class="cls-7" d="m103.08,51.58v-14.67h5.05v3.57c2.42,4.4,5.59,6.6,9.5,6.6,1.99,0,3.68-.61,5.05-1.83,1.38-1.22,2.06-2.82,2.06-4.79s-.56-3.3-1.68-4.14c-1.12-.84-3.25-1.68-6.36-2.51-3.62-.97-6.3-1.88-8.05-2.75-1.74-.86-3.13-2.09-4.17-3.69-1.04-1.6-1.55-3.49-1.55-5.68,0-3.39,1.13-6.1,3.39-8.12,2.26-2.02,5.09-3.04,8.5-3.04,3.23,0,6.24,1.05,9.01,3.14v-2.7h4.94v12.26h-4.94v-2.82c-2.07-3.12-4.93-4.68-8.57-4.68-2.21,0-3.9.51-5.08,1.53-1.18,1.02-1.77,2.23-1.77,3.65,0,1.08.3,2.04.9,2.86.6.82,1.37,1.43,2.3,1.82.93.39,2.76.93,5.49,1.62,3.56.93,6.15,1.79,7.76,2.6,1.61.8,2.99,2.15,4.15,4.03,1.16,1.88,1.74,4.04,1.74,6.48,0,3.45-1.22,6.3-3.65,8.54-2.43,2.25-5.44,3.37-9.02,3.37s-6.99-1.33-9.94-3.98v3.34h-5.05Z"/><path class="cls-7" d="m146.04,46.53v-30.3h-8.34v10.31h-5v-15.37h32.75v15.37h-5v-10.31h-8.31v30.3h5.26v5.06h-16.53v-5.06h5.17Z"/><path class="cls-7" d="m61.94,148.47l-3.79-10.33v10.33h-1.41v-13.51h1.75l3.72,10.23v-10.23h1.43v13.51h-1.7Z"/><path class="cls-7" d="m65.54,148.47v-13.51h6.17v1.43h-4.67v4.57h4.4v1.41h-4.4v4.67h4.71v1.43h-6.21Z"/><path class="cls-7" d="m76.56,148.6c-2.09,0-3.54-.94-3.54-3.13v-10.52h1.51v10.39c0,1.31.78,1.89,2.04,1.89,1.19,0,1.96-.61,1.96-1.87v-10.4h1.51v10.59c0,2.02-1.36,3.06-3.48,3.06Z"/><path class="cls-7" d="m88.31,141.02c-.25.54-.68.97-1.14,1.09l2.07,6.36h-1.53l-2.01-6.05h-2.35v6.05h-1.48v-13.51h4.06c1.33,0,2.02.58,2.38,1.5.21.48.32,1.22.32,2.26s-.14,1.84-.34,2.31Zm-1.34-3.77c-.15-.54-.56-.9-1.28-.9h-2.31v4.73s2.4-.02,2.48-.02c.56-.03.9-.25,1.04-.61.12-.31.19-1.07.19-1.56,0-.6-.05-1.43-.12-1.63Z"/><path class="cls-7" d="m97.25,136.74c.46,1.05.61,2.7.61,4.91,0,2.43-.19,3.94-.66,5-.6,1.33-1.56,1.96-3.26,1.96s-2.77-.7-3.28-1.94c-.39-.95-.65-2.36-.65-4.98,0-2.23.19-3.77.65-4.93.44-1.1,1.53-1.92,3.28-1.92s2.79.7,3.31,1.9Zm-1.45,9.45c.34-.78.53-2.24.53-4.49,0-1.38-.12-3.47-.46-4.27-.27-.65-.92-1.17-1.94-1.17s-1.62.51-1.89,1.16c-.34.82-.48,2.91-.48,4.32,0,1.55.08,3.45.48,4.4.36.87,1.19,1.14,1.89,1.14.88,0,1.56-.39,1.87-1.09Z"/><path class="cls-7" d="m99.34,148.47v-13.51h1.53v12.09h4.45v1.43h-5.98Z"/><path class="cls-7" d="m113.29,136.74c.46,1.05.61,2.7.61,4.91,0,2.43-.19,3.94-.66,5-.59,1.33-1.56,1.96-3.26,1.96s-2.77-.7-3.28-1.94c-.39-.95-.65-2.36-.65-4.98,0-2.23.19-3.77.65-4.93.44-1.1,1.53-1.92,3.28-1.92s2.79.7,3.31,1.9Zm-1.44,9.45c.34-.78.53-2.24.53-4.49,0-1.38-.12-3.47-.46-4.27-.27-.65-.92-1.17-1.94-1.17s-1.61.51-1.89,1.16c-.34.82-.48,2.91-.48,4.32,0,1.55.08,3.45.48,4.4.36.87,1.19,1.14,1.89,1.14.88,0,1.56-.39,1.87-1.09Z"/><path class="cls-7" d="m121.23,148.47l-.08-1.05c-.34.58-1.11,1.19-2.52,1.19-2.6,0-3.69-1.63-3.69-6.88,0-4.56.68-6.9,3.86-6.9,2.8,0,3.52,2.12,3.52,4.52h-1.48c0-1.7-.36-3.08-2.04-3.08-1.9,0-2.29,1.24-2.29,5.49s.29,5.54,2.33,5.54c1.21,0,1.92-.73,2.12-1.63v-3.13h-2.6v-1.38h4.01v3.99c0,1.6.02,3.3.02,3.31h-1.16Z"/><path class="cls-7" d="m127.85,143.67v4.79h-1.55v-4.76l-3.37-8.75h1.58s2.57,6.68,2.58,7.04c0-.36,2.74-7.04,2.74-7.04h1.53l-3.52,8.72Z"/><path class="cls-7" d="m141.33,145.2c.34-.88.6-1.82.63-2.94h1.34c-.02,1.73-.39,3.08-1,4.06l1.77,2.14h-1.94l-.82-.97c-.82.82-1.85,1.09-3.08,1.09-1.75,0-3.16-.71-3.31-2.79-.02-.24-.02-.82,0-1.04.08-1.34,1.02-2.35,2.09-3.3-.75-1.31-1.02-2.36-1.04-3.28v-.88c.03-1.5.97-2.43,2.63-2.43,1.53,0,2.33.99,2.4,2.35v.71c-.03,1.51-1.07,2.69-2.21,3.74.61.97,1.41,2.14,2.53,3.54Zm-4.98.05c0,1.55.87,1.99,1.77,1.99s1.62-.15,2.33-.87c-1.22-1.48-2.09-2.74-2.72-3.76-.76.76-1.38,1.63-1.38,2.63Zm3.28-7.27v-.66c-.03-.66-.39-1.16-1.12-1.16s-1.14.49-1.17,1.22v.82c.02.63.25,1.39.76,2.29.78-.68,1.51-1.58,1.53-2.52Z"/><path class="cls-7" d="m55.53,166.47l-3.79-10.33v10.33h-1.41v-13.51h1.75l3.72,10.23v-10.23h1.43v13.51h-1.7Z"/><path class="cls-7" d="m59.13,166.47v-13.51h6.17v1.43h-4.67v4.57h4.4v1.41h-4.4v4.67h4.71v1.43h-6.2Z"/><path class="cls-7" d="m70.15,166.6c-2.09,0-3.54-.94-3.54-3.13v-10.52h1.51v10.39c0,1.31.78,1.89,2.04,1.89,1.19,0,1.95-.61,1.95-1.87v-10.4h1.51v10.59c0,2.02-1.36,3.06-3.48,3.06Z"/><path class="cls-7" d="m81.9,159.02c-.25.54-.68.97-1.14,1.09l2.07,6.36h-1.53l-2.01-6.05h-2.35v6.05h-1.48v-13.51h4.06c1.33,0,2.02.58,2.38,1.5.2.48.32,1.22.32,2.26s-.14,1.84-.34,2.31Zm-1.34-3.77c-.15-.54-.56-.9-1.27-.9h-2.31v4.73s2.4-.02,2.48-.02c.56-.03.9-.25,1.04-.61.12-.31.19-1.07.19-1.56,0-.6-.05-1.43-.12-1.63Z"/><path class="cls-7" d="m90.84,154.74c.46,1.05.61,2.7.61,4.91,0,2.43-.19,3.94-.66,5-.59,1.33-1.56,1.96-3.26,1.96s-2.77-.7-3.28-1.94c-.39-.95-.65-2.36-.65-4.98,0-2.23.19-3.77.65-4.93.44-1.1,1.53-1.92,3.28-1.92s2.79.7,3.31,1.9Zm-1.44,9.45c.34-.78.53-2.24.53-4.49,0-1.38-.12-3.47-.46-4.27-.27-.65-.92-1.17-1.94-1.17s-1.61.51-1.89,1.16c-.34.82-.48,2.91-.48,4.32,0,1.55.08,3.45.48,4.4.36.87,1.19,1.14,1.89,1.14.88,0,1.56-.39,1.87-1.09Z"/><path class="cls-7" d="m96.13,166.6c-2.21,0-3.33-.82-3.59-2.26-.12-.66-.1-1.22-.1-1.65h1.5c0,.29.05.97.1,1.34.14.9.95,1.24,2.14,1.24,1.31,0,1.97-.59,1.97-1.94,0-1.26-.48-1.97-1.9-2.87-.29-.19-.9-.58-1.33-.85-1.51-.97-2.46-1.9-2.46-3.74s1.16-3.04,3.52-3.03c2.18,0,3.2.92,3.52,2.5.1.49.08.95.08,1.38h-1.53c0-.22.02-.76-.05-1.1-.19-.97-.75-1.41-2.07-1.41s-1.89.63-1.89,1.67c0,1.12.48,1.73,1.94,2.65.41.25.97.59,1.28.78,1.56.97,2.46,1.99,2.46,3.91,0,2.19-1.24,3.38-3.59,3.38Z"/><path class="cls-7" d="m104.54,166.6c-2.09,0-3.54-.94-3.54-3.13v-10.52h1.51v10.39c0,1.31.78,1.89,2.04,1.89,1.19,0,1.95-.61,1.95-1.87v-10.4h1.51v10.59c0,2.02-1.36,3.06-3.48,3.06Z"/><path class="cls-7" d="m116.29,159.02c-.25.54-.68.97-1.14,1.09l2.07,6.36h-1.53l-2.01-6.05h-2.35v6.05h-1.48v-13.51h4.06c1.33,0,2.02.58,2.38,1.5.2.48.32,1.22.32,2.26s-.14,1.84-.34,2.31Zm-1.34-3.77c-.15-.54-.56-.9-1.27-.9h-2.31v4.73s2.4-.02,2.48-.02c.56-.03.9-.25,1.04-.61.12-.31.19-1.07.19-1.56,0-.6-.05-1.43-.12-1.63Z"/><path class="cls-7" d="m124.28,166.47l-.09-1.05c-.34.58-1.1,1.19-2.52,1.19-2.6,0-3.69-1.63-3.69-6.88,0-4.56.68-6.9,3.86-6.9,2.8,0,3.52,2.12,3.52,4.52h-1.48c0-1.7-.36-3.08-2.04-3.08-1.9,0-2.29,1.24-2.29,5.49s.29,5.54,2.33,5.54c1.21,0,1.92-.73,2.12-1.63v-3.13h-2.6v-1.38h4.01v3.99c0,1.6.02,3.3.02,3.31h-1.16Z"/><path class="cls-7" d="m126.93,166.47v-13.51h6.17v1.43h-4.67v4.57h4.4v1.41h-4.4v4.67h4.71v1.43h-6.21Z"/><path class="cls-7" d="m140.97,159.02c-.25.54-.68.97-1.14,1.09l2.07,6.36h-1.53l-2.01-6.05h-2.35v6.05h-1.48v-13.51h4.06c1.33,0,2.02.58,2.38,1.5.2.48.32,1.22.32,2.26s-.14,1.84-.34,2.31Zm-1.34-3.77c-.15-.54-.56-.9-1.27-.9h-2.31v4.73s2.4-.02,2.48-.02c.56-.03.9-.25,1.04-.61.12-.31.19-1.07.19-1.56,0-.6-.05-1.43-.12-1.63Z"/><path class="cls-7" d="m147.07,161.67v4.79h-1.55v-4.76l-3.37-8.75h1.58s2.57,6.68,2.58,7.04c0-.36,2.74-7.04,2.74-7.04h1.53l-3.52,8.72Z"/><path class="cls-7" d="m46.09,84.84v-12h-7.77v12h-2.98v-26.64h2.98v11.79h7.77v-11.79h2.98v26.64h-2.98Z"/><path class="cls-7" d="m66.42,61.72c.9,2.08,1.21,5.33,1.21,9.68,0,4.79-.37,7.77-1.31,9.85-1.17,2.61-3.08,3.85-6.43,3.85s-5.46-1.37-6.47-3.82c-.77-1.88-1.27-4.66-1.27-9.82,0-4.39.37-7.44,1.27-9.72.87-2.18,3.02-3.79,6.47-3.79s5.5,1.37,6.53,3.75Zm-2.85,18.63c.67-1.54,1.04-4.42,1.04-8.85,0-2.71-.24-6.84-.91-8.41-.54-1.27-1.81-2.31-3.82-2.31s-3.18,1.01-3.72,2.28c-.67,1.61-.94,5.73-.94,8.51,0,3.05.17,6.8.94,8.68.7,1.71,2.35,2.25,3.72,2.25,1.74,0,3.08-.77,3.69-2.14Z"/><path class="cls-7" d="m76.87,85.11c-4.36,0-6.57-1.61-7.07-4.46-.23-1.31-.2-2.41-.2-3.25h2.95c0,.57.1,1.91.2,2.65.27,1.78,1.88,2.45,4.22,2.45,2.58,0,3.89-1.17,3.89-3.82,0-2.48-.94-3.89-3.75-5.66-.57-.37-1.78-1.14-2.61-1.68-2.98-1.91-4.86-3.75-4.86-7.37s2.28-6,6.94-5.96c4.29,0,6.3,1.81,6.94,4.93.2.97.17,1.88.17,2.71h-3.02c0-.44.03-1.51-.1-2.18-.37-1.91-1.47-2.78-4.09-2.78s-3.72,1.24-3.72,3.28c0,2.21.94,3.42,3.82,5.23.8.5,1.91,1.17,2.51,1.54,3.08,1.91,4.86,3.92,4.86,7.71,0,4.32-2.45,6.67-7.07,6.67Z"/><path class="cls-7" d="m99.22,72.27c-.9,1.31-2.38,2.08-4.52,2.18-.57.03-4.89,0-4.89,0v10.39h-2.98v-26.64h8.01c2.31,0,3.48.77,4.36,2.14.74,1.14,1.21,2.98,1.21,6.03s-.37,4.72-1.17,5.9Zm-2.41-9.85c-.6-1.04-1.31-1.41-2.61-1.41h-4.39v10.69h4.22c1.68,0,2.38-.64,2.81-1.44.34-.6.5-1.81.5-3.82s-.24-3.48-.54-4.02Z"/><path class="cls-7" d="m103.34,84.84v-26.64h3.05v26.64h-3.05Z"/><path class="cls-7" d="m116.98,60.98v23.86h-3.05v-23.86h-5.56v-2.78h14.21v2.78h-5.6Z"/><path class="cls-7" d="m124.01,84.84h-3.02l6.47-26.64h3.79l5.93,26.64h-3.08l-1.41-6.53h-7.24l-1.44,6.53Zm5.63-20.74c-.07-.33-.37-2.61-.37-2.61,0,0-.37,2.28-.44,2.61-.1.47-2.75,11.53-2.75,11.53h6.07s-2.45-11.16-2.51-11.53Z"/><path class="cls-7" d="m139.12,84.84v-26.64h3.02v23.82h8.78v2.81h-11.79Z"/><path class="cls-7" d="m158.55,85.11c-4.36,0-6.57-1.61-7.07-4.46-.23-1.31-.2-2.41-.2-3.25h2.95c0,.57.1,1.91.2,2.65.27,1.78,1.88,2.45,4.22,2.45,2.58,0,3.89-1.17,3.89-3.82,0-2.48-.94-3.89-3.75-5.66-.57-.37-1.78-1.14-2.61-1.68-2.98-1.91-4.86-3.75-4.86-7.37s2.28-6,6.94-5.96c4.29,0,6.3,1.81,6.94,4.93.2.97.17,1.88.17,2.71h-3.02c0-.44.03-1.51-.1-2.18-.37-1.91-1.47-2.78-4.09-2.78s-3.72,1.24-3.72,3.28c0,2.21.94,3.42,3.82,5.23.8.5,1.91,1.17,2.51,1.54,3.08,1.91,4.86,3.92,4.86,7.71,0,4.32-2.45,6.67-7.07,6.67Z"/><path class="cls-6" d="m23.86,0v189.28l76.2,24,76.2-24V0H23.86Zm151.81,181.86v6.88l-75.61,23.92-75.61-23.92V.59h151.22v181.28Z"/><polygon class="cls-2" points="0 99.35 23.68 99.35 23.68 131.23 2 131.23 6.6 118.13 0 99.35"/><polygon class="cls-8" points="23.68 132.54 1.54 132.54 2 131.23 23.68 131.23 23.68 132.54"/><polygon class="cls-9" points="23.68 136.92 0 136.92 1.54 132.54 23.68 132.54 23.68 136.92"/><polygon class="cls-2" points="200 99.35 176.32 99.35 176.32 131.23 198 131.23 193.4 118.13 200 99.35"/><polygon class="cls-8" points="176.32 132.54 198.46 132.54 198 131.23 176.32 131.23 176.32 132.54"/><polygon class="cls-9" points="176.32 136.92 200 136.92 198.46 132.54 176.32 132.54 176.32 136.92"/><polygon class="cls-7" points="23.82 128.66 23.82 137.03 14.02 128.63 23.82 128.66"/><polygon class="cls-7" points="176.26 128.66 176.26 137.03 185.29 128.63 176.26 128.66"/><rect class="cls-3" x="14.06" y="90.95" width="171.17" height="33.4"/><g id="U.S.News"><path class="cls-4" d="m38.65,123.79c-6.06,0-10.59-2.28-10.59-7.98v-16.66h5.33v16.2c0,2.56,1.91,4.06,5.39,4.06,3.05,0,5.2-1.5,5.2-4.03v-16.23h5.33v16.97c0,5.15-4.43,7.67-10.66,7.67Z"/><path class="cls-4" d="m47.97,123.49v-4.96h4.75v4.96h-4.75Z"/><path class="cls-4" d="m64.29,123.82c-7.36,0-10.01-2.22-10.99-5.3-.25-.8-.34-2-.34-2.49h5.48c0,.43.15,1.17.34,1.54.68,1.42,2.28,2.03,5.51,2.03,3.7,0,4.99-1.02,4.99-2.62,0-2-1.02-2.71-4.96-3.45-.71-.13-2.5-.47-3.57-.68-4.75-.89-7.67-3.08-7.67-7.11s3.33-6.9,10.47-6.9c6.1,0,8.96,2.12,10.19,5.2.31.8.56,1.72.56,2.34h-5.48c0-.28-.15-.83-.34-1.2-.65-1.36-1.97-2.06-5.05-2.06-4.03,0-4.83.89-4.83,2.28,0,1.79,1.45,2.49,5.42,3.29,1.23.24,2.83.59,3.39.68,4.84.93,7.36,2.93,7.36,7.09,0,4.4-3.48,7.36-10.47,7.36Z"/><path class="cls-4" d="m73.55,123.49v-4.96h4.75v4.96h-4.75Z"/><path class="cls-4" d="m94.81,123.49l-9.8-16.48v16.48h-5.08v-24.33h6.19l9.36,15.67v-15.67h5.08v24.33h-5.76Z"/><path class="cls-4" d="m118.99,122.15c-1.57,1.01-3.76,1.63-6.66,1.63-3.98,0-7.21-1.18-8.94-3.92-.88-1.4-1.37-3.2-1.37-5.45,0-2.06.56-3.88,1.57-5.32,1.73-2.51,4.83-3.98,8.75-3.98,4.11,0,6.92,1.5,8.52,3.82,1.34,1.96,1.83,4.54,1.53,7.24h-15.21c0,.82.36,1.44.98,2.12.76.82,2.22,1.34,4.18,1.34,1.47,0,2.55-.26,3.3-.59.94-.42,1.4-1.01,1.5-1.4h5.13c-.42,1.73-1.47,3.36-3.26,4.5Zm-2.68-11.45c-.75-.75-1.99-1.37-3.95-1.37-1.86,0-3.23.49-4.11,1.28-.62.55-1.11,1.63-1.11,2.15h10.05c0-.52-.22-1.37-.88-2.06Z"/><path class="cls-4" d="m147.92,123.49h-6.17s-3.53-10.31-3.59-10.9c-.04-.23-.23-1.29-.23-1.29,0,0-.19,1.06-.23,1.26-.03.62-3.56,10.93-3.56,10.93h-6.2l-6.42-17.95h5.45l4.31,13.34,3.95-13.34h5.81l4.05,13.34,4.21-13.34h5.13l-6.49,17.95Z"/><path class="cls-4" d="m164,123.81c-6.07,0-8.94-1.21-9.69-4.14-.16-.72-.19-1.21-.19-1.79h5.19c0,.23.03.55.16.91.33.85,1.7,1.08,4.54,1.08s3.88-.52,3.88-1.57-1.08-1.24-3.72-1.63c-.68-.1-2.84-.42-3.91-.59-3.95-.55-5.84-2.28-5.84-5.71,0-3.19,2.87-5.28,8.65-5.28,4.92,0,8.03,1.27,8.94,3.85.23.69.33,1.8.33,2.15h-5.06c0-.19-.07-.75-.23-.98-.36-.49-1.31-.92-3.78-.92-2.87,0-3.72.46-3.72,1.31,0,.78.56,1.08,3.1,1.47,1.05.16,3.56.52,4.17.62,4.31.65,6.2,2.25,6.2,5.61,0,3.72-2.81,5.61-9,5.61Z"/></g><g id="_World_Report"><path class="cls-4" d="m106.39,102.45c.16-.2.25-.46.27-.74h1.37c-.02.61-.27,1.14-.66,1.52.32.24.69.53,1.05.81h-1.86c-.08-.06-.16-.12-.23-.19-.38.16-.88.23-1.35.23-1.16,0-2.21-.21-2.25-1.11,0-.07,0-.19,0-.25.01-.56.54-.9,1.12-1.17-.28-.4-.39-.74-.4-1.03v-.25c.03-.6.62-1.17,1.64-1.17.93,0,1.47.54,1.51,1.13,0,.04,0,.18,0,.21-.01.62-.49,1.05-.98,1.35.22.18.5.43.78.66Zm-2.21.31c0,.24.22.32.73.32.14,0,.31-.02.43-.05-.28-.24-.57-.47-.78-.67-.22.13-.38.26-.38.4Zm1.2-2.22v-.1c0-.16-.08-.3-.31-.3s-.31.15-.33.32c0,.04,0,.09,0,.13,0,.13.08.29.2.45.25-.15.42-.31.44-.5Z"/><path class="cls-4" d="m115.78,104.03h-1.63s-.73-2.82-.75-2.97c0,.16-.76,2.97-.76,2.97h-1.62l-1.4-4.89h1.6s.75,3.02.75,3.17c0-.15.72-3.17.72-3.17h1.54s.74,3.02.74,3.17c0-.15.73-3.17.73-3.17h1.45l-1.37,4.89Z"/><path class="cls-4" d="m122.42,101.55c0,1.72-.82,2.56-2.61,2.56s-2.61-.87-2.61-2.54c0-1.56.8-2.51,2.61-2.51s2.61.85,2.61,2.49Zm-1.51.04c0-.97-.27-1.37-1.09-1.37s-1.08.38-1.08,1.37c0,1.04.38,1.38,1.09,1.38s1.09-.29,1.09-1.38Z"/><path class="cls-4" d="m127.56,101.61c-.15.26-.38.41-.6.46l1.14,1.96h-1.68l-.86-1.65h-1.01v1.65h-1.47v-4.89h3.09c.65,0,1.08.19,1.32.51.19.25.28.57.28,1.03,0,.39-.08.71-.21.92Zm-1.3-1.11c-.07-.16-.22-.21-.43-.21h-1.26v1h1.29c.18,0,.34-.04.4-.16.04-.09.06-.22.06-.32,0-.11-.01-.24-.05-.32Z"/><path class="cls-4" d="m128.81,104.03v-4.89h1.51v3.68h2.35v1.21h-3.86Z"/><path class="cls-4" d="m136.17,104.03h-2.75v-4.89h2.68c.88,0,1.43.22,1.74.64.3.41.36.82.36,1.71,0,1.04-.07,1.42-.34,1.83-.29.45-.8.71-1.68.71Zm.57-2.54c0-.35-.04-.8-.16-.94-.19-.21-.37-.26-.74-.26h-.94v2.59h.94c.38,0,.58-.08.75-.28.13-.16.14-.71.14-1.11Z"/><path class="cls-4" d="m145.17,101.61c-.15.26-.38.41-.6.46l1.15,1.96h-1.68l-.86-1.65h-1.01v1.65h-1.47v-4.89h3.09c.65,0,1.07.19,1.32.51.19.25.28.57.28,1.03,0,.39-.09.71-.22.92Zm-1.3-1.11c-.08-.16-.22-.21-.44-.21h-1.26v1h1.29c.18,0,.35-.04.4-.16.04-.09.05-.22.05-.32,0-.11,0-.24-.05-.32Z"/><path class="cls-4" d="m146.48,104.03v-4.89h4.16v1.15h-2.68v.71h2.59v1.16h-2.59v.73h2.71v1.14h-4.18Z"/><path class="cls-4" d="m155.99,102.02c-.28.33-.75.48-1.35.5-.18,0-1.51,0-1.51,0v1.53h-1.51v-4.89h3.01c.59,0,1.01.13,1.28.41.29.25.44.67.44,1.28,0,.54-.12.93-.36,1.19Zm-1.21-1.5c-.08-.16-.23-.23-.47-.23h-1.19v1.13h1.17c.29,0,.43-.09.5-.23.05-.09.06-.18.06-.32,0-.15-.02-.28-.07-.34Z"/><path class="cls-4" d="m162.09,101.55c0,1.72-.82,2.56-2.6,2.56s-2.61-.87-2.61-2.54c0-1.56.8-2.51,2.61-2.51s2.6.85,2.6,2.49Zm-1.51.04c0-.97-.26-1.37-1.09-1.37s-1.08.38-1.08,1.37c0,1.04.37,1.38,1.09,1.38s1.09-.29,1.09-1.38Z"/><path class="cls-4" d="m167.25,101.61c-.16.26-.38.41-.61.46l1.14,1.96h-1.67l-.86-1.65h-1.01v1.65h-1.48v-4.89h3.09c.65,0,1.08.19,1.32.51.19.25.28.57.28,1.03,0,.39-.09.71-.21.92Zm-1.3-1.11c-.07-.16-.22-.21-.44-.21h-1.26v1h1.29c.19,0,.35-.04.4-.16.04-.09.05-.22.05-.32,0-.11-.01-.24-.05-.32Z"/><path class="cls-4" d="m170.98,100.32v3.71h-1.52v-3.71h-1.55v-1.18h4.64v1.18h-1.56Z"/></g><rect class="cls-4" x="14.07" y="122.98" width="171.16" height="1.57"/><rect class="cls-5" x="14.08" y="124.29" width="171.17" height="4.54"/><path class="cls-4" d="m40.88,187.6v-2.04c5.38-3.02,8.98-5.36,9.04-8.9v-.42c-.02-1.46-.98-2.54-3.26-2.54s-3.16,1.04-3.32,2.3c-.02.2-.02.6-.02.84h-2.3c0-.34.02-.88.04-1.24.28-2.08,1.9-3.98,5.8-3.98s5.48,1.98,5.58,4.2c.02.24,0,.64-.02.9-.12,3.56-3.82,6.5-7.96,8.86h8.44v2.02h-12.02Z"/><path class="cls-4" d="m66.25,175.62c.26,1.08.3,2.5.3,4.08,0,1.32-.14,3.26-.42,4.2-.72,2.66-2.6,3.88-5.72,3.88s-4.98-1.12-5.74-3.92c-.3-1.06-.4-2.84-.4-4.18,0-1.56.02-2.76.3-4.06.52-2.44,2.5-4,5.86-4s5.3,1.7,5.82,4Zm-2.32.5c-.3-1.5-1.52-2.46-3.52-2.46s-3.28.96-3.56,2.46c-.14.76-.2,2.62-.2,3.58,0,1.26.12,2.94.3,3.68.4,1.64,1.56,2.4,3.48,2.4s3.02-.82,3.44-2.4c.18-.68.28-2.62.28-3.7,0-1.02-.06-2.82-.22-3.56Z"/><path class="cls-4" d="m68.1,187.6v-2.04c5.38-3.02,8.98-5.36,9.04-8.9v-.42c-.02-1.46-.98-2.54-3.26-2.54s-3.16,1.04-3.32,2.3c-.02.2-.02.6-.02.84h-2.3c0-.34.02-.88.04-1.24.28-2.08,1.9-3.98,5.8-3.98s5.48,1.98,5.58,4.2c.02.24,0,.64-.02.9-.12,3.56-3.82,6.5-7.96,8.86h8.44v2.02h-12.02Z"/><path class="cls-4" d="m94.11,181.6c.24.74.34,1.82.06,2.84-.54,2.08-2.62,3.34-6.06,3.34-3.22,0-4.7-.98-5.46-2.66-.4-.82-.42-1.8-.42-2.4h2.32c0,.46.02,1.28.32,1.78.5.84,1.42,1.38,3.28,1.38,2.08,0,3.18-.78,3.56-1.84.22-.7.24-1.46-.06-2.16-.44-1.14-1.4-1.48-3.12-1.48h-3.14v-1.94h2.98c1.66,0,2.14-.36,2.58-1,.48-.7.46-1.74.18-2.4-.34-.82-1.06-1.44-2.92-1.44-1.96,0-2.88.74-3.12,1.76-.1.38-.12.84-.12,1.18h-2.2c0-.58.04-1.4.2-1.88.52-1.86,2.22-3.06,5.36-3.06,2.94,0,4.62.98,5.1,2.72.34,1.06.28,2.26-.18,3.02-.46.88-1.2,1.56-2.1,1.78,1.2.12,2.56,1.1,2.96,2.46Z"/><path class="cls-4" d="m96.79,181.32v-2.2h8.56v2.2h-8.56Z"/><path class="cls-4" d="m107.39,187.6v-2.04c5.38-3.02,8.98-5.36,9.04-8.9v-.42c-.02-1.46-.98-2.54-3.26-2.54s-3.16,1.04-3.32,2.3c-.02.2-.02.6-.02.84h-2.3c0-.34.02-.88.04-1.24.28-2.08,1.9-3.98,5.8-3.98s5.48,1.98,5.58,4.2c.02.24,0,.64-.02.9-.12,3.56-3.82,6.5-7.96,8.86h8.44v2.02h-12.02Z"/><path class="cls-4" d="m133.05,175.62c.26,1.08.3,2.5.3,4.08,0,1.32-.14,3.26-.42,4.2-.72,2.66-2.6,3.88-5.72,3.88s-4.98-1.12-5.74-3.92c-.3-1.06-.4-2.84-.4-4.18,0-1.56.02-2.76.3-4.06.52-2.44,2.5-4,5.86-4s5.3,1.7,5.82,4Zm-2.32.5c-.3-1.5-1.52-2.46-3.52-2.46s-3.28.96-3.56,2.46c-.14.76-.2,2.62-.2,3.58,0,1.26.12,2.94.3,3.68.4,1.64,1.56,2.4,3.48,2.4s3.02-.82,3.44-2.4c.18-.68.28-2.62.28-3.7,0-1.02-.06-2.82-.22-3.56Z"/><path class="cls-4" d="m134.21,187.6v-2.04c5.38-3.02,8.98-5.36,9.04-8.9v-.42c-.02-1.46-.98-2.54-3.26-2.54s-3.16,1.04-3.32,2.3c-.02.2-.02.6-.02.84h-2.3c0-.34.02-.88.04-1.24.28-2.08,1.9-3.98,5.8-3.98s5.48,1.98,5.58,4.2c.02.24,0,.64-.02.9-.12,3.56-3.82,6.5-7.96,8.86h8.44v2.02h-12.02Z"/><path class="cls-4" d="m156.7,183.96v3.64h-2.22v-3.64h-7.98v-2.22l7.9-10.08h2.3v10.28h2.42v2.02h-2.42Zm-2.22-9.36l-5.68,7.34h5.68v-7.34Z"/></svg>