<?xml version="1.0" encoding="utf-8"?>
<!-- Generator: Adobe Illustrator 27.7.0, SVG Export Plug-In . SVG Version: 6.00 Build 0)  -->
<svg version="1.1" id="Isolation_Mode" xmlns="http://www.w3.org/2000/svg" xmlns:xlink="http://www.w3.org/1999/xlink" x="0px"
	 y="0px" viewBox="0 0 475.6 467.2" style="enable-background:new 0 0 475.6 467.2;" xml:space="preserve">
<style type="text/css">
	.st0{fill:#FFFFFF;stroke:#A0A2A7;stroke-miterlimit:10;}
	.st1{fill:url(#SVGID_1_);}
	.st2{fill:#323333;}
	.st3{fill:#00528D;}
	.st4{fill:#DADBDA;}
	.st5{fill:#CD2029;}
	.st6{fill:#015FA2;}
	.st7{fill:#FFFFFF;}
	.st8{fill:#E7262B;}
</style>
<path class="st0" d="M56.7,0v410.1l181.2,57.1l181.2-57.1V0H56.7z"/>
<linearGradient id="SVGID_1_" gradientUnits="userSpaceOnUse" x1="89.2379" y1="475.4661" x2="385.7491" y2="52.0044" gradientTransform="matrix(1 0 0 -1 0 470)">
	<stop  offset="0.13" style="stop-color:#D3B268"/>
	<stop  offset="0.39" style="stop-color:#FFE9B6"/>
	<stop  offset="0.48" style="stop-color:#F9E1AD"/>
	<stop  offset="0.61" style="stop-color:#E8CE94"/>
	<stop  offset="0.78" style="stop-color:#CEAF6D"/>
	<stop  offset="0.98" style="stop-color:#A98536"/>
	<stop  offset="1" style="stop-color:#A68131"/>
</linearGradient>
<polygon class="st1" points="67.1,10.1 67.1,80.7 66.7,261.8 64.1,401 238,454.6 410,401 410,261.7 410,80.7 410,10.1 "/>
<path class="st2" d="M94,110.2V38.1H82.2v-12h32c8.8,0,15.4,0.5,19.8,1.6s8.3,3.7,11.6,8s5,9.4,5,15.2c0,4.5-1,8.5-3,12.1
	c-2,3.6-4.9,6.3-8.8,8.1c5.3,1.8,9.4,4.9,12.3,9.2c2.9,4.3,4.3,9.1,4.3,14.6c0,4.7-1.1,9.1-3.2,12.9c-2.1,3.9-5,6.9-8.5,9
	c-3.6,2.1-7.4,3.6-11.6,4.3c-4.2,0.7-10,1.1-17.2,1.1H82.2v-12L94,110.2L94,110.2z M108.5,66.1h9.1c6.9,0,11.7-1.2,14.5-3.6
	c2.7-2.4,4.1-6,4.1-10.7c0-9.1-6.2-13.7-18.6-13.7h-9.1C108.5,38.1,108.5,66.1,108.5,66.1z M108.5,110.2h5.5
	c7.1,0,12.4-0.4,15.7-1.1c3.3-0.7,6-2.4,8.1-5c2.1-2.7,3.1-6.1,3.1-10.2c0-3.8-1-6.9-3-9.5c-2-2.6-4.6-4.3-7.7-5.1
	c-3.2-0.8-7.6-1.3-13.4-1.3h-8.3L108.5,110.2L108.5,110.2z"/>
<polygon class="st2" points="169.5,110.2 169.5,38.1 157.1,38.1 157.1,26.1 236.9,26.1 236.9,55 225,55 225,38.1 184,38.1 184,66.7 
	219.7,66.7 219.7,78.7 184,78.7 184,110.2 225,110.2 225,92.7 236.9,92.7 236.9,122.2 157.1,122.2 157.1,110.2 "/>
<path class="st2" d="M245.1,122.7V87.8h12v8.5c5.8,10.5,13.3,15.7,22.6,15.7c4.7,0,8.8-1.4,12-4.3s4.9-6.7,4.9-11.4s-1.3-7.8-4-9.8
	c-2.7-2-7.7-4-15.1-6c-8.6-2.3-15-4.5-19.1-6.5c-4.1-2.1-7.4-5-9.9-8.8c-2.5-3.8-3.7-8.3-3.7-13.5c0-8.1,2.7-14.5,8.1-19.3
	c5.4-4.8,12.1-7.2,20.2-7.2s14.8,2.5,21.4,7.5V26h11.8v29.2h-11.8v-6.7c-4.9-7.4-11.7-11.1-20.4-11.1c-5.2,0-9.3,1.2-12.1,3.6
	s-4.2,5.3-4.2,8.7c0,2.6,0.7,4.8,2.1,6.8c1.4,2,3.2,3.4,5.5,4.3s6.6,2.2,13.1,3.9c8.5,2.2,14.6,4.3,18.5,6.2
	c3.8,1.9,7.1,5.1,9.9,9.6c2.8,4.5,4.1,9.6,4.1,15.4c0,8.2-2.9,15-8.7,20.3c-5.8,5.3-12.9,8-21.5,8s-16.6-3.2-23.6-9.5v7.9H245.1z"/>
<polygon class="st2" points="347.3,110.6 347.3,38.6 327.4,38.6 327.4,63.1 315.5,63.1 315.5,26.5 393.4,26.5 393.4,63.1 
	381.5,63.1 381.5,38.6 361.8,38.6 361.8,110.6 374.3,110.6 374.3,122.7 335,122.7 335,110.6 "/>
<path class="st2" d="M115.1,325.4c1.2,2.7,1.6,7,1.6,12.7c0,6.3-0.5,10.2-1.7,12.9c-1.5,3.4-4,5-8.4,5s-7.2-1.8-8.5-5
	c-1-2.5-1.7-6.1-1.7-12.9c0-5.8,0.5-9.8,1.7-12.7c1.1-2.9,3.9-5,8.5-5S113.8,322.3,115.1,325.4 M111.4,349.8c0.9-2,1.4-5.8,1.4-11.6
	c0-3.6-0.3-9-1.2-11c-0.7-1.7-2.4-3-5-3s-4.2,1.3-4.9,3c-0.9,2.1-1.2,7.5-1.2,11.2c0,4,0.2,8.9,1.2,11.4c0.9,2.2,3.1,3,4.9,3
	C108.8,352.7,110.6,351.7,111.4,349.8"/>
<path class="st2" d="M136.8,339.3c-1.2,1.7-3.1,2.7-5.9,2.9c-0.7,0-6.4,0-6.4,0v13.6h-3.9v-34.9H131c3,0,4.6,1,5.7,2.8
	c1,1.5,1.6,3.9,1.6,7.9S137.8,337.7,136.8,339.3 M133.6,326.3c-0.8-1.4-1.7-1.8-3.4-1.8h-5.8v14h5.5c2.2,0,3.1-0.8,3.7-1.9
	c0.4-0.8,0.7-2.4,0.7-5S134,327.1,133.6,326.3"/>
<polygon class="st2" points="156.1,355.7 156.1,340 145.9,340 145.9,355.7 142,355.7 142,320.8 145.9,320.8 145.9,336.3 
	156.1,336.3 156.1,320.8 160,320.8 160,355.7 "/>
<polygon class="st2" points="173.9,324.5 173.9,355.7 169.9,355.7 169.9,324.5 162.6,324.5 162.6,320.8 181.2,320.8 181.2,324.5 "/>
<polygon class="st2" points="197.9,355.7 197.9,340 187.7,340 187.7,355.7 183.8,355.7 183.8,320.8 187.7,320.8 187.7,336.3 
	197.9,336.3 197.9,320.8 201.8,320.8 201.8,355.7 "/>
<path class="st2" d="M208.3,355.7h-3.9l8.5-34.9h5l7.8,34.9h-4l-1.9-8.6h-9.5L208.3,355.7z M215.6,328.5c-0.1-0.4-0.5-3.4-0.5-3.4
	s-0.5,3-0.6,3.4c-0.1,0.6-3.6,15.1-3.6,15.1h7.9C218.9,343.6,215.7,329,215.6,328.5"/>
<polygon class="st2" points="228.1,355.7 228.1,320.8 232,320.8 232,352 243.5,352 243.5,355.7 "/>
<polygon class="st2" points="266.5,355.7 266.5,331 260.1,355.7 256.3,355.7 250.2,331 250.2,355.7 246.6,355.7 246.6,320.8 
	251.4,320.8 258.3,349.7 265.5,320.8 270.2,320.8 270.2,355.7 "/>
<path class="st2" d="M292.6,325.4c1.2,2.7,1.6,7,1.6,12.7c0,6.3-0.5,10.2-1.7,12.9c-1.5,3.4-4,5-8.4,5s-7.2-1.8-8.5-5
	c-1-2.5-1.7-6.1-1.7-12.9c0-5.8,0.5-9.8,1.7-12.7c1.1-2.9,4-5,8.5-5S291.3,322.3,292.6,325.4 M288.9,349.8c0.9-2,1.4-5.8,1.4-11.6
	c0-3.6-0.3-9-1.2-11c-0.7-1.7-2.4-3-5-3s-4.2,1.3-4.9,3c-0.9,2.1-1.2,7.5-1.2,11.2c0,4,0.2,8.9,1.2,11.4c0.9,2.2,3.1,3,4.9,3
	C286.3,352.7,288.1,351.7,288.9,349.8"/>
<polygon class="st2" points="298,355.7 298,320.8 302,320.8 302,352 313.5,352 313.5,355.7 "/>
<path class="st2" d="M334.1,325.4c1.2,2.7,1.6,7,1.6,12.7c0,6.3-0.5,10.2-1.7,12.9c-1.5,3.4-4,5-8.4,5s-7.2-1.8-8.5-5
	c-1-2.5-1.7-6.1-1.7-12.9c0-5.8,0.5-9.8,1.7-12.7c1.1-2.9,4-5,8.5-5S332.8,322.3,334.1,325.4 M330.4,349.8c0.9-2,1.4-5.8,1.4-11.6
	c0-3.6-0.3-9-1.2-11c-0.7-1.7-2.4-3-5-3s-4.2,1.3-4.9,3c-0.9,2.1-1.2,7.5-1.2,11.2c0,4,0.2,8.9,1.2,11.4c0.9,2.2,3.1,3,4.9,3
	C327.8,352.7,329.6,351.7,330.4,349.8"/>
<path class="st2" d="M354.6,355.7l-0.2-2.7c-0.9,1.5-2.9,3.1-6.5,3.1c-6.7,0-9.5-4.2-9.5-17.8c0-11.8,1.8-17.8,10-17.8
	c7.2,0,9.1,5.5,9.1,11.7h-3.8c0-4.4-0.9-8-5.3-8c-4.9,0-5.9,3.2-5.9,14.2s0.8,14.3,6,14.3c3.1,0,5-1.9,5.5-4.2v-8.1h-6.7v-3.6h10.4
	v10.3c0,4.1,0,8.5,0,8.6L354.6,355.7L354.6,355.7z"/>
<path class="st2" d="M371.7,343.3v12.4h-4v-12.3l-8.7-22.6h4.1c0,0,6.6,17.3,6.7,18.2c0-0.9,7.1-18.2,7.1-18.2h4L371.7,343.3
	L371.7,343.3z"/>
<polygon class="st2" points="109.6,201.7 109.6,173.2 91.1,173.2 91.1,201.7 84,201.7 84,138.4 91.1,138.4 91.1,166.4 109.6,166.4 
	109.6,138.4 116.7,138.4 116.7,201.7 "/>
<path class="st2" d="M157.9,146.8c2.1,4.9,2.9,12.7,2.9,23c0,11.4-0.9,18.5-3.1,23.4c-2.8,6.2-7.3,9.2-15.3,9.2s-13-3.3-15.4-9.1
	c-1.8-4.5-3-11.1-3-23.4c0-10.4,0.9-17.7,3-23.1c2.1-5.2,7.2-9,15.4-9S155.5,141.1,157.9,146.8 M151.2,191.1
	c1.6-3.7,2.5-10.5,2.5-21c0-6.4-0.6-16.2-2.1-20c-1.3-3-4.3-5.5-9.1-5.5s-7.6,2.4-8.9,5.4c-1.6,3.8-2.2,13.6-2.2,20.2
	c0,7.2,0.4,16.2,2.2,20.6c1.7,4.1,5.6,5.3,8.9,5.3C146.5,196.2,149.7,194.3,151.2,191.1"/>
<path class="st2" d="M182.8,202.4c-10.4,0-15.6-3.8-16.8-10.6c-0.6-3.1-0.5-5.7-0.5-7.7h7c0,1.4,0.2,4.5,0.5,6.3
	c0.6,4.2,4.5,5.8,10,5.8c6.1,0,9.2-2.8,9.2-9.1c0-5.9-2.2-9.2-8.9-13.5c-1.4-0.9-4.2-2.7-6.2-4c-7.1-4.5-11.6-8.9-11.6-17.5
	s5.4-14.3,16.5-14.2c10.2,0,15,4.3,16.5,11.7c0.5,2.3,0.4,4.5,0.4,6.4h-7.2c0-1,0.1-3.6-0.2-5.2c-0.9-4.5-3.5-6.6-9.7-6.6
	s-8.9,2.9-8.9,7.8c0,5.3,2.2,8.1,9.1,12.4c1.9,1.2,4.5,2.8,6,3.7c7.3,4.5,11.6,9.3,11.6,18.3C199.6,196.8,193.8,202.4,182.8,202.4"
	/>
<path class="st2" d="M235.9,171.9c-2.1,3.1-5.7,4.9-10.8,5.2c-1.4,0.1-11.6,0-11.6,0v24.7h-7.1v-63.3h19c5.5,0,8.3,1.8,10.4,5.1
	c1.8,2.7,2.9,7.1,2.9,14.3S237.8,169.1,235.9,171.9 M230.2,148.4c-1.4-2.5-3.1-3.4-6.2-3.4h-10.4v25.4h10c4,0,5.7-1.5,6.7-3.4
	c0.8-1.4,1.2-4.3,1.2-9.1S230.9,149.7,230.2,148.4"/>
<rect x="245.7" y="138.4" class="st2" width="7.2" height="63.3"/>
<polygon class="st2" points="278.1,145 278.1,201.7 270.9,201.7 270.9,145 257.7,145 257.7,138.4 291.5,138.4 291.5,145 "/>
<path class="st2" d="M294.9,201.7h-7.2l15.4-63.3h9l14.1,63.3h-7.3l-3.4-15.5h-17.2L294.9,201.7L294.9,201.7z M308.3,152.4
	c-0.2-0.8-0.9-6.2-0.9-6.2s-0.9,5.4-1,6.2c-0.2,1.1-6.5,27.4-6.5,27.4h14.4C314.2,179.8,308.4,153.3,308.3,152.4"/>
<polygon class="st2" points="330.8,201.7 330.8,138.4 338,138.4 338,195 358.9,195 358.9,201.7 "/>
<path class="st2" d="M377,202.4c-10.4,0-15.6-3.8-16.8-10.6c-0.6-3.1-0.5-5.7-0.5-7.7h7c0,1.4,0.2,4.5,0.5,6.3
	c0.6,4.2,4.5,5.8,10,5.8c6.1,0,9.2-2.8,9.2-9.1c0-5.9-2.2-9.2-8.9-13.5c-1.4-0.9-4.2-2.7-6.2-4c-7.1-4.5-11.5-8.9-11.5-17.5
	s5.4-14.3,16.5-14.2c10.2,0,15,4.3,16.5,11.7c0.5,2.3,0.4,4.5,0.4,6.4H386c0-1,0.1-3.6-0.2-5.2c-0.9-4.5-3.5-6.6-9.7-6.6
	s-8.8,2.9-8.8,7.8c0,5.3,2.2,8.1,9.1,12.4c1.9,1.2,4.5,2.8,6,3.7c7.3,4.5,11.5,9.3,11.5,18.3C393.8,196.8,388,202.4,377,202.4"/>
<polygon class="st3" points="0,236.2 56.3,236.2 56.3,312 4.8,312 15.7,280.9 "/>
<polygon class="st4" points="56.3,315.2 3.7,315.2 4.8,312 56.3,312 "/>
<polygon class="st5" points="56.3,325.6 0,325.6 3.7,315.2 56.3,315.2 "/>
<polygon class="st3" points="475.6,236.2 419.3,236.2 419.3,312 470.8,312 459.9,280.9 "/>
<polygon class="st4" points="419.3,315.2 471.9,315.2 470.8,312 419.3,312 "/>
<polygon class="st5" points="419.3,325.6 475.6,325.6 471.9,315.2 419.3,315.2 "/>
<polygon class="st2" points="56.6,305.9 56.6,325.9 33.3,305.9 "/>
<polygon class="st2" points="419.1,305.9 419.1,325.9 440.6,305.9 "/>
<rect x="33.4" y="216.3" class="st6" width="407" height="79.4"/>
<path class="st7" d="M91.9,294.4c-14.4,0-25.2-5.4-25.2-19v-39.6h12.7v38.5c0,6.1,4.5,9.7,12.8,9.7c7.2,0,12.4-3.6,12.4-9.6v-38.6
	h12.7v40.3C117.2,288.4,106.7,294.4,91.9,294.4"/>
<rect x="114.1" y="281.9" class="st7" width="11.3" height="11.8"/>
<path class="st7" d="M152.9,294.4c-17.5,0-23.8-5.3-26.1-12.6c-0.6-1.9-0.8-4.8-0.8-5.9h13c0,1,0.4,2.8,0.8,3.7
	c1.6,3.4,5.4,4.8,13.1,4.8c8.8,0,11.9-2.4,11.9-6.2c0-4.8-2.4-6.5-11.8-8.2c-1.7-0.3-5.9-1.1-8.5-1.6c-11.3-2.1-18.2-7.3-18.2-16.9
	s7.9-16.4,24.9-16.4c14.5,0,21.3,5.1,24.2,12.4c0.7,1.9,1.3,4.1,1.3,5.6h-13c0-0.7-0.4-2-0.8-2.9c-1.5-3.2-4.7-4.9-12-4.9
	c-9.6,0-11.5,2.1-11.5,5.4c0,4.2,3.4,5.9,12.9,7.8c2.9,0.6,6.7,1.4,8.1,1.6c11.5,2.2,17.5,7,17.5,16.9
	C177.8,287.4,169.5,294.4,152.9,294.4"/>
<rect x="174.9" y="281.9" class="st7" width="11.3" height="11.8"/>
<polygon class="st7" points="225.4,293.6 202.1,254.4 202.1,293.6 190.1,293.6 190.1,235.8 204.8,235.8 227.1,273 227.1,235.8 
	239.1,235.8 239.1,293.6 "/>
<path class="st7" d="M282.9,290.5c-3.7,2.4-8.9,3.9-15.8,3.9c-9.5,0-17.1-2.8-21.3-9.3c-2.1-3.3-3.3-7.6-3.3-13
	c0-4.9,1.3-9.2,3.7-12.6c4.1-6,11.5-9.5,20.8-9.5c9.8,0,16.5,3.6,20.2,9.1c3.2,4.7,4.3,10.8,3.6,17.2h-36.2c0,2,0.9,3.4,2.3,5
	c1.8,2,5.3,3.2,9.9,3.2c3.5,0,6-0.6,7.8-1.4c2.2-1,3.3-2.4,3.6-3.3h12.2C289.7,283.9,287.2,287.7,282.9,290.5 M276.6,263.2
	c-1.8-1.8-4.7-3.3-9.4-3.3c-4.4,0-7.7,1.2-9.8,3c-1.5,1.3-2.6,3.9-2.6,5.1h23.9C278.7,266.9,278.1,264.8,276.6,263.2"/>
<path class="st7" d="M340.4,293.6h-14.7c0,0-8.4-24.5-8.5-25.9c-0.1-0.5-0.5-3.1-0.5-3.1s-0.5,2.5-0.5,3c-0.1,1.5-8.5,26-8.5,26
	h-14.8L277.7,251h13l10.2,31.7l9.4-31.7h13.8l9.6,31.7l10-31.7h12.2L340.4,293.6L340.4,293.6z"/>
<path class="st7" d="M390,294.4c-14.4,0-21.3-2.9-23-9.9c-0.4-1.7-0.5-2.9-0.5-4.3h12.3c0,0.5,0.1,1.3,0.4,2.2c0.8,2,4,2.6,10.8,2.6
	s9.2-1.2,9.2-3.7s-2.6-3-8.9-3.9c-1.6-0.2-6.7-1-9.3-1.4c-9.4-1.3-13.9-5.4-13.9-13.6c0-7.6,6.8-12.6,20.6-12.6
	c11.7,0,19.1,3,21.2,9.1c0.5,1.6,0.8,4.3,0.8,5.1h-12c0-0.5-0.2-1.8-0.5-2.3c-0.9-1.2-3.1-2.2-9-2.2c-6.8,0-8.9,1.1-8.9,3.1
	c0,1.9,1.3,2.6,7.4,3.5c2.5,0.4,8.5,1.2,9.9,1.5c10.2,1.6,14.8,5.4,14.8,13.4C411.4,289.9,404.7,294.4,390,294.4"/>
<path class="st7" d="M253,243.6c0.4-0.5,0.6-1.1,0.6-1.8h3.3c-0.1,1.5-0.6,2.7-1.6,3.6c0.8,0.6,1.7,1.2,2.5,1.9h-4.4
	c-0.2-0.1-0.4-0.3-0.5-0.4c-0.9,0.4-2.1,0.6-3.2,0.6c-2.8,0-5.2-0.5-5.4-2.6c0-0.2,0-0.4,0-0.6c0-1.3,1.3-2.1,2.7-2.8
	c-0.7-0.9-0.9-1.8-0.9-2.5v-0.6c0.1-1.4,1.5-2.8,3.9-2.8c2.2,0,3.5,1.3,3.6,2.7c0,0.1,0,0.4,0,0.5c0,1.5-1.2,2.5-2.3,3.2
	C251.6,242.5,252.3,243.1,253,243.6 M247.7,244.3c0,0.6,0.5,0.8,1.7,0.8c0.3,0,0.7,0,1-0.1c-0.7-0.6-1.4-1.1-1.9-1.6
	C248.1,243.7,247.7,244,247.7,244.3 M250.6,239.1v-0.2c0-0.4-0.2-0.7-0.7-0.7s-0.7,0.4-0.8,0.8c0,0.1,0,0.2,0,0.3
	c0,0.3,0.2,0.7,0.5,1.1C250.1,239.9,250.5,239.5,250.6,239.1"/>
<path class="st7" d="M275.3,247.4h-3.9c0,0-1.7-6.7-1.8-7.1c0,0.4-1.8,7.1-1.8,7.1H264l-3.3-11.6h3.8c0,0,1.8,7.2,1.8,7.6
	c0-0.4,1.7-7.6,1.7-7.6h3.7c0,0,1.8,7.2,1.8,7.6c0-0.4,1.7-7.6,1.7-7.6h3.5L275.3,247.4z"/>
<path class="st7" d="M291.1,241.5c0,4.1-2,6.1-6.2,6.1s-6.2-2.1-6.2-6.1c0-3.7,1.9-6,6.2-6S291.1,237.6,291.1,241.5 M287.5,241.5
	c0-2.3-0.6-3.2-2.6-3.2s-2.6,0.9-2.6,3.2c0,2.5,0.9,3.3,2.6,3.3S287.5,244.1,287.5,241.5"/>
<path class="st7" d="M303.3,241.6c-0.4,0.6-0.9,1-1.4,1.1l2.7,4.6h-4l-2-3.9h-2.4v3.9h-3.5v-11.6h7.4c1.5,0,2.6,0.4,3.1,1.2
	c0.5,0.6,0.7,1.4,0.7,2.4C303.8,240.4,303.6,241.1,303.3,241.6 M300.2,239c-0.2-0.4-0.5-0.5-1-0.5h-3v2.4h3.1c0.4,0,0.8-0.1,0.9-0.4
	c0.1-0.2,0.1-0.5,0.1-0.8C300.4,239.5,300.3,239.1,300.2,239"/>
<polygon class="st7" points="306.3,247.4 306.3,235.8 309.9,235.8 309.9,244.5 315.5,244.5 315.5,247.4 "/>
<path class="st7" d="M323.8,247.4h-6.5v-11.6h6.4c2.1,0,3.4,0.5,4.1,1.5c0.7,1,0.9,1.9,0.9,4.1c0,2.5-0.2,3.4-0.8,4.4
	C327.1,246.8,325.9,247.4,323.8,247.4 M325.1,241.4c0-0.8-0.1-1.9-0.4-2.2c-0.5-0.5-0.9-0.6-1.8-0.6h-2.2v6.2h2.2
	c0.9,0,1.4-0.2,1.8-0.7C325.1,243.6,325.2,242.3,325.1,241.4"/>
<path class="st7" d="M345.2,241.6c-0.4,0.6-0.9,1-1.4,1.1l2.7,4.6h-4l-2-3.9H338v3.9h-3.5v-11.6h7.4c1.5,0,2.5,0.4,3.1,1.2
	c0.5,0.6,0.7,1.4,0.7,2.4C345.7,240.4,345.5,241.1,345.2,241.6 M342.1,239c-0.2-0.4-0.5-0.5-1-0.5h-3v2.4h3.1c0.4,0,0.8-0.1,1-0.4
	c0.1-0.2,0.1-0.5,0.1-0.8C342.2,239.5,342.2,239.1,342.1,239"/>
<polygon class="st7" points="348.3,247.4 348.3,235.8 358.2,235.8 358.2,238.5 351.8,238.5 351.8,240.2 358,240.2 358,242.9 
	351.8,242.9 351.8,244.7 358.2,244.7 358.2,247.4 "/>
<path class="st7" d="M370.9,242.6c-0.7,0.8-1.8,1.1-3.2,1.2c-0.4,0-3.6,0-3.6,0v3.6h-3.6v-11.6h7.1c1.4,0,2.4,0.3,3,1
	c0.7,0.6,1,1.6,1,3C371.8,241,371.5,242,370.9,242.6 M368,239c-0.2-0.4-0.5-0.6-1.1-0.6h-2.8v2.7h2.8c0.7,0,1-0.2,1.2-0.5
	c0.1-0.2,0.1-0.4,0.1-0.8C368.2,239.5,368.1,239.2,368,239"/>
<path class="st7" d="M385.4,241.5c0,4.1-1.9,6.1-6.2,6.1s-6.2-2.1-6.2-6.1c0-3.7,1.9-6,6.2-6S385.4,237.6,385.4,241.5 M381.8,241.5
	c0-2.3-0.6-3.2-2.6-3.2s-2.6,0.9-2.6,3.2c0,2.5,0.9,3.3,2.6,3.3S381.8,244.1,381.8,241.5"/>
<path class="st7" d="M397.7,241.6c-0.4,0.6-0.9,1-1.4,1.1l2.7,4.6h-4l-2-3.9h-2.4v3.9H387v-11.6h7.4c1.5,0,2.6,0.4,3.1,1.2
	c0.5,0.6,0.7,1.4,0.7,2.4C398.2,240.4,398,241.1,397.7,241.6 M394.6,239c-0.2-0.4-0.5-0.5-1-0.5h-3v2.4h3.1c0.4,0,0.8-0.1,1-0.4
	c0.1-0.2,0.1-0.5,0.1-0.8C394.7,239.5,394.7,239.1,394.6,239"/>
<polygon class="st7" points="406.6,238.6 406.6,247.4 402.9,247.4 402.9,238.6 399.3,238.6 399.3,235.8 410.3,235.8 410.3,238.6 "/>
<rect x="33.5" y="292.4" class="st7" width="407" height="3.7"/>
<rect x="33.5" y="295.5" class="st8" width="407" height="10.8"/>
<path class="st7" d="M97.2,406v-4.9c12.8-7.2,21.4-12.8,21.5-21.2v-1c-0.1-3.5-2.3-6-7.8-6s-7.5,2.5-7.9,5.5c-0.1,0.5-0.1,1.4-0.1,2
	h-5.5c0-0.8,0.1-2.1,0.1-3c0.7-4.9,4.5-9.5,13.8-9.5s13,4.7,13.3,10c0.1,0.6,0,1.5-0.1,2.1c-0.3,8.5-9.1,15.5-18.9,21.1h20.1v4.8
	L97.2,406L97.2,406z"/>
<path class="st7" d="M157.5,377.5c0.6,2.6,0.7,6,0.7,9.7c0,3.1-0.3,7.8-1,10c-1.7,6.3-6.2,9.2-13.6,9.2s-11.9-2.7-13.6-9.3
	c-0.7-2.5-0.9-6.8-0.9-9.9c0-3.7,0.1-6.6,0.7-9.6c1.2-5.8,5.9-9.5,13.9-9.5S156.3,372.1,157.5,377.5 M152,378.7
	c-0.7-3.6-3.6-5.9-8.4-5.9s-7.8,2.3-8.5,5.9c-0.3,1.8-0.5,6.2-0.5,8.5c0,3,0.3,7,0.7,8.8c0.9,3.9,3.7,5.7,8.3,5.7s7.2-2,8.2-5.7
	c0.4-1.6,0.7-6.2,0.7-8.8C152.5,384.8,152.4,380.5,152,378.7"/>
<path class="st7" d="M161.9,406v-4.9c12.8-7.2,21.4-12.8,21.5-21.2v-1c-0.1-3.5-2.3-6-7.8-6s-7.5,2.5-7.9,5.5
	c-0.1,0.5-0.1,1.4-0.1,2h-5.5c0-0.8,0.1-2.1,0.1-3c0.7-4.9,4.5-9.5,13.8-9.5s13,4.7,13.3,10c0.1,0.6,0,1.5-0.1,2.1
	c-0.3,8.5-9.1,15.5-18.9,21.1h20.1v4.8L161.9,406L161.9,406z"/>
<path class="st7" d="M223.8,391.8c0.6,1.8,0.8,4.3,0.1,6.8c-1.3,5-6.2,8-14.4,8c-7.7,0-11.2-2.3-13-6.3c-0.9-2-1-4.3-1-5.7h5.5
	c0,1.1,0.1,3,0.8,4.2c1.2,2,3.4,3.3,7.8,3.3c4.9,0,7.6-1.9,8.5-4.4c0.5-1.7,0.6-3.5-0.1-5.1c-1.1-2.7-3.3-3.5-7.4-3.5H203v-4.6h7.1
	c3.9,0,5.1-0.9,6.1-2.4c1.1-1.7,1.1-4.1,0.4-5.7c-0.8-2-2.5-3.4-6.9-3.4c-4.7,0-6.9,1.8-7.4,4.2c-0.2,0.9-0.3,2-0.3,2.8h-5.2
	c0-1.4,0.1-3.3,0.5-4.5c1.2-4.4,5.3-7.3,12.8-7.3c7,0,11,2.3,12.1,6.5c0.8,2.5,0.7,5.4-0.4,7.2c-1.1,2.1-2.9,3.7-5,4.2
	C219.6,386.2,222.8,388.5,223.8,391.8"/>
<rect x="230.1" y="385.9" class="st7" width="20.4" height="5.2"/>
<path class="st7" d="M255.4,406v-4.9c12.8-7.2,21.4-12.8,21.5-21.2v-1c0-3.5-2.3-6-7.8-6s-7.5,2.5-7.9,5.5c0,0.5,0,1.4,0,2h-5.5
	c0-0.8,0.1-2.1,0.1-3c0.7-4.9,4.5-9.5,13.8-9.5s13,4.7,13.3,10c0,0.6,0,1.5,0,2.1c-0.3,8.5-9.1,15.5-18.9,21.1H284v4.8L255.4,406
	L255.4,406z"/>
<path class="st7" d="M316.4,377.5c0.6,2.6,0.7,6,0.7,9.7c0,3.1-0.3,7.8-1,10c-1.7,6.3-6.2,9.2-13.6,9.2s-11.9-2.7-13.6-9.3
	c-0.7-2.5-1-6.8-1-9.9c0-3.7,0-6.6,0.7-9.6c1.2-5.8,6-9.5,13.9-9.5S315.1,372.1,316.4,377.5 M310.9,378.7c-0.7-3.6-3.6-5.9-8.4-5.9
	s-7.8,2.3-8.5,5.9c-0.3,1.8-0.5,6.2-0.5,8.5c0,3,0.3,7,0.7,8.8c1,3.9,3.7,5.7,8.3,5.7s7.2-2,8.2-5.7c0.4-1.6,0.7-6.2,0.7-8.8
	C311.4,384.8,311.2,380.5,310.9,378.7"/>
<path class="st7" d="M319.1,406v-4.9c12.8-7.2,21.4-12.8,21.5-21.2v-1c0-3.5-2.3-6-7.8-6s-7.5,2.5-7.9,5.5c0,0.5,0,1.4,0,2h-5.5
	c0-0.8,0-2.1,0.1-3c0.7-4.9,4.5-9.5,13.8-9.5s13,4.7,13.3,10c0,0.6,0,1.5,0,2.1c-0.3,8.5-9.1,15.5-18.9,21.1h20.1v4.8L319.1,406
	L319.1,406z"/>
<path class="st7" d="M372.6,397.4v8.7h-5.3v-8.7h-19v-5.3l18.8-24h5.5v24.5h5.8v4.8H372.6z M367.3,375.1l-13.5,17.5h13.5V375.1z"/>
</svg>
